<?xml version="1.0" standalone="no"?>
<!DOCTYPE svg PUBLIC "-//W3C//DTD SVG 20010904//EN"
 "http://www.w3.org/TR/2001/REC-SVG-20010904/DTD/svg10.dtd">
<svg version="1.0" xmlns="http://www.w3.org/2000/svg"
 width="180.000000pt" height="180.000000pt" viewBox="0 0 180.000000 180.000000"
 preserveAspectRatio="xMidYMid meet">
<metadata>
Created by potrace 1.16, written by Peter Selinger 2001-2019
</metadata>
<g transform="translate(0.000000,180.000000) scale(0.100000,-0.100000)"
fill="#fff" stroke="none">
<path d="M823 1717 c-64 -18 -124 -66 -156 -125 -74 -136 -27 -294 108 -369
82 -44 126 -50 197 -23 80 30 129 69 161 128 51 93 47 195 -11 280 -66 99
-182 141 -299 109z"/>
<path d="M574 1080 c-60 -29 -97 -62 -128 -111 l-17 -27 41 -16 c43 -17 154
-49 255 -72 33 -8 65 -16 70 -18 6 -2 15 -4 20 -5 6 -2 27 -12 48 -24 l37 -21
38 22 c22 12 75 30 118 41 148 36 280 75 302 89 16 11 -31 79 -76 111 -83 58
-96 61 -383 61 l-266 0 -59 -30z"/>
<path d="M362 813 l3 -87 63 -22 c34 -12 72 -30 83 -40 54 -48 75 -145 44
-203 -17 -34 -73 -83 -85 -76 -5 3 -11 1 -14 -3 -3 -5 -26 -6 -51 -2 l-45 7 0
-72 0 -72 45 -13 c25 -7 45 -17 45 -22 0 -5 4 -7 9 -3 8 4 63 -12 141 -42 8
-4 18 -5 23 -5 4 1 7 -3 7 -9 0 -5 4 -8 8 -5 5 3 58 -10 118 -29 60 -19 125
-35 144 -35 19 0 84 16 144 35 60 19 113 32 118 29 4 -3 8 0 8 5 0 6 3 10 8 9
4 0 14 1 22 5 78 30 133 46 141 42 5 -4 9 -2 9 3 0 5 20 15 45 22 l45 13 0 74
c0 67 -2 73 -17 64 -32 -16 -107 0 -141 31 -54 52 -68 128 -33 196 27 52 51
72 123 96 l63 22 3 87 c3 101 7 99 -94 61 -38 -14 -69 -25 -69 -24 0 1 -7 -1
-15 -4 -8 -3 -67 -21 -130 -41 -63 -20 -133 -43 -155 -51 -52 -18 -98 -18
-150 0 -22 8 -92 31 -155 51 -63 20 -122 38 -130 41 -8 3 -17 5 -20 6 -3 0
-34 11 -69 24 -95 36 -92 38 -89 -63z"/>
<path d="M301 652 c-67 -66 -40 -207 41 -219 72 -11 102 -8 131 11 87 59 43
189 -75 221 -5 2 -9 3 -10 5 -2 1 -16 4 -31 6 -21 4 -35 -2 -56 -24z"/>
<path d="M1410 669 c-8 -4 -32 -15 -52 -24 -122 -54 -90 -229 41 -218 85 6
101 14 127 66 21 39 10 119 -21 154 -23 27 -67 38 -95 22z"/>
</g>
</svg>
