<?xml version="1.0" standalone="no"?>
<!DOCTYPE svg PUBLIC "-//W3C//DTD SVG 20010904//EN"
 "http://www.w3.org/TR/2001/REC-SVG-20010904/DTD/svg10.dtd">
<svg version="1.0" xmlns="http://www.w3.org/2000/svg"
 width="550.000000pt" height="550.000000pt" viewBox="0 0 550.000000 550.000000"
 preserveAspectRatio="xMidYMid meet">

<g transform="translate(0.000000,550.000000) scale(0.100000,-0.100000)"
fill="#fff" stroke="none">
<path d="M1382 5090 c-41 -17 -52 -65 -52 -235 0 -85 4 -155 8 -155 5 0 35 9
68 21 75 27 221 36 306 20 96 -19 217 -82 292 -152 84 -78 133 -153 170 -259
46 -133 40 -298 -16 -429 -10 -24 -17 -45 -16 -47 2 -1 61 10 132 24 l129 27
189 242 c103 133 203 253 221 267 58 45 127 69 208 74 167 10 301 -69 373
-218 28 -58 31 -75 31 -155 -1 -79 -4 -98 -31 -155 -30 -62 -431 -597 -513
-683 -60 -63 -122 -96 -314 -166 l-182 -66 -3 -62 -3 -63 526 0 525 0 0 175 0
175 387 -2 388 -3 48 -87 48 -88 -46 -85 -47 -85 261 0 261 0 0 1063 c-1 1124
1 1080 -47 1105 -27 15 -3265 16 -3301 2z"/>
<path d="M1459 4552 c-172 -57 -300 -232 -299 -411 1 -216 155 -395 371 -431
174 -30 368 71 448 232 110 218 23 477 -196 585 -69 34 -84 38 -172 40 -72 2
-110 -1 -152 -15z"/>
<path d="M3009 4310 c-20 -3 -50 -15 -68 -26 -19 -11 -118 -129 -234 -279
l-202 -259 -80 -18 c-44 -9 -168 -36 -275 -59 l-195 -43 -350 -6 c-302 -5
-357 -9 -400 -24 -66 -24 -123 -67 -157 -118 -57 -84 -58 -98 -58 -625 l0
-484 37 8 c21 4 88 8 148 7 94 0 120 -4 177 -27 67 -26 172 -90 197 -121 11
-13 35 -16 128 -16 l115 0 56 44 c97 75 225 126 316 126 l36 0 0 389 0 389 43
16 c23 9 129 47 235 85 106 38 210 80 231 94 26 17 122 133 272 329 128 167
239 316 247 332 74 147 -57 317 -219 286z"/>
<path d="M2387 2823 c-4 -3 -7 -82 -7 -175 l0 -168 1234 0 1235 0 28 24 c27
23 28 28 31 134 4 133 -7 165 -66 181 -41 12 -2444 16 -2455 4z"/>
<path d="M1043 2195 c-157 -49 -262 -185 -271 -352 -7 -133 42 -246 140 -324
l48 -38 -68 -36 c-124 -65 -221 -178 -269 -316 -22 -62 -27 -97 -31 -219 -4
-128 -3 -148 12 -163 16 -16 154 -17 2126 -17 l2110 0 16 26 c15 22 16 43 11
152 -8 153 -17 195 -64 292 -44 92 -148 200 -239 248 l-62 32 67 68 c89 88
114 149 115 277 1 86 -1 95 -37 167 -43 87 -98 142 -186 185 -50 25 -67 28
-161 28 -93 0 -112 -3 -161 -26 -272 -128 -308 -502 -64 -676 l29 -21 -64 -32
c-80 -40 -196 -154 -234 -227 -14 -29 -28 -53 -30 -53 -3 0 -15 21 -28 48 -33
69 -160 193 -236 231 l-64 32 44 33 c49 38 86 88 120 161 19 42 23 67 23 150
0 93 -2 105 -32 166 -39 80 -111 150 -191 187 -50 24 -69 27 -162 27 -96 0
-110 -3 -165 -29 -187 -92 -268 -303 -193 -503 16 -44 38 -75 90 -127 38 -38
67 -69 66 -70 -111 -45 -232 -150 -288 -249 l-33 -58 -27 50 c-58 105 -164
204 -264 245 l-39 16 40 29 c113 82 174 232 151 375 -19 123 -108 239 -223
293 -53 25 -71 28 -160 28 -91 0 -106 -3 -165 -31 -117 -56 -190 -149 -216
-275 -31 -148 28 -302 149 -390 l38 -28 -43 -19 c-104 -47 -229 -168 -267
-261 -8 -17 -16 -31 -20 -31 -3 1 -17 24 -31 53 -34 70 -149 184 -225 222 -33
17 -62 31 -64 32 -2 1 21 25 51 52 68 62 114 146 130 238 10 60 9 80 -5 139
-46 185 -196 305 -379 303 -40 0 -92 -6 -115 -14z"/>
</g>
</svg>
