<?xml version="1.0" standalone="no"?>
<!DOCTYPE svg PUBLIC "-//W3C//DTD SVG 20010904//EN"
 "http://www.w3.org/TR/2001/REC-SVG-20010904/DTD/svg10.dtd">
<svg version="1.0" xmlns="http://www.w3.org/2000/svg"
 width="512.000000pt" height="512.000000pt" viewBox="0 0 512.000000 512.000000"
 preserveAspectRatio="xMidYMid meet">

<g transform="translate(0.000000,512.000000) scale(0.100000,-0.100000)"
fill="#fff" stroke="none">
<path d="M4037 4810 c-473 -80 -903 -549 -1017 -1112 -105 -515 94 -997 477
-1152 212 -87 448 -70 688 49 371 183 648 560 747 1019 31 144 31 400 0 534
-82 355 -302 592 -610 657 -72 16 -207 18 -285 5z m267 -176 c232 -56 414
-250 486 -519 28 -101 38 -317 20 -436 -39 -267 -173 -534 -364 -725 -193
-193 -411 -294 -635 -294 -114 0 -199 19 -284 61 -178 90 -297 241 -363 464
-35 118 -44 333 -20 471 44 254 164 495 337 678 246 260 543 368 823 300z"/>
<path d="M4066 4551 c-46 -7 -76 -29 -76 -55 0 -8 183 -99 251 -124 7 -3 79
138 79 153 0 6 -97 25 -150 29 -30 2 -77 1 -104 -3z"/>
<path d="M4375 4403 c-19 -42 -34 -77 -32 -79 5 -6 249 -114 256 -114 4 0 13
11 19 24 12 26 -3 58 -66 134 -31 38 -121 112 -136 112 -3 0 -21 -34 -41 -77z"/>
<path d="M3734 4421 c-68 -45 -144 -109 -144 -120 0 -4 36 -24 80 -44 l81 -36
50 107 c46 99 49 108 33 119 -26 19 -36 17 -100 -26z"/>
<path d="M3892 4288 l-51 -109 62 -29 c171 -78 199 -90 202 -90 1 0 24 47 50
105 29 64 45 109 39 114 -5 5 -64 34 -130 64 l-121 54 -51 -109z"/>
<path d="M4246 4124 c-26 -58 -46 -107 -44 -109 8 -8 244 -115 253 -115 9 0
109 210 103 215 -8 6 -251 115 -257 115 -4 0 -28 -48 -55 -106z"/>
<path d="M3492 4197 c-29 -32 -112 -159 -112 -171 0 -6 51 -34 113 -62 92 -42
113 -49 120 -37 5 8 29 57 53 109 l44 95 -78 35 c-122 56 -117 55 -140 31z"/>
<path d="M3775 4035 c-14 -30 -36 -80 -50 -110 l-25 -55 28 -14 c52 -27 234
-107 237 -104 12 15 95 211 91 215 -3 3 -62 32 -131 64 l-126 58 -24 -54z"/>
<path d="M4636 4038 c-8 -18 -30 -67 -49 -109 l-36 -77 79 -36 c44 -20 82 -36
86 -36 4 0 5 57 2 127 -5 116 -7 128 -28 145 -31 25 -38 23 -54 -14z"/>
<path d="M3318 3902 c-29 -73 -66 -198 -60 -204 4 -3 52 -26 107 -51 l100 -45
43 91 c65 139 70 124 -63 184 l-116 52 -11 -27z"/>
<path d="M4106 3820 c-25 -55 -46 -104 -46 -108 0 -8 237 -122 252 -122 9 0
98 187 98 205 0 10 -229 125 -250 125 -4 0 -28 -45 -54 -100z"/>
<path d="M3610 3678 c-23 -51 -44 -99 -47 -105 -3 -9 40 -34 122 -73 70 -33
129 -60 131 -60 6 0 105 212 101 216 -9 9 -241 114 -251 114 -7 0 -32 -42 -56
-92z"/>
<path d="M4459 3653 c-27 -58 -47 -108 -45 -111 8 -7 217 -102 226 -102 6 0
51 139 64 203 6 26 3 29 -71 63 -137 63 -117 69 -174 -53z"/>
<path d="M3960 3503 c-28 -58 -49 -107 -48 -108 33 -18 259 -117 262 -114 7 7
96 201 96 209 0 7 -239 120 -254 120 -3 0 -29 -48 -56 -107z"/>
<path d="M3230 3462 l0 -128 45 -22 46 -22 49 106 c28 58 50 108 50 111 0 6
-165 83 -179 83 -7 0 -11 -41 -11 -128z"/>
<path d="M3466 3366 c-25 -55 -46 -105 -46 -111 1 -10 250 -128 256 -122 2 2
26 50 53 108 l49 104 -91 44 c-51 24 -110 52 -133 61 l-41 18 -47 -102z"/>
<path d="M4317 3346 c-26 -57 -47 -106 -47 -109 0 -6 154 -81 189 -92 16 -5
28 6 59 52 41 61 86 143 80 148 -4 4 -226 105 -231 105 -1 0 -24 -47 -50 -104z"/>
<path d="M3817 3194 c-26 -59 -47 -108 -45 -109 9 -8 259 -117 261 -114 9 13
98 212 95 214 -6 6 -248 115 -255 115 -4 0 -30 -48 -56 -106z"/>
<path d="M3260 3200 c0 -5 5 -10 11 -10 5 0 7 5 4 10 -3 6 -8 10 -11 10 -2 0
-4 -4 -4 -10z"/>
<path d="M3360 3135 c-5 -14 -16 -38 -24 -54 -14 -27 -14 -31 15 -74 33 -51
112 -130 158 -159 l30 -19 40 85 c61 132 62 122 -11 155 -35 16 -94 43 -131
60 l-68 30 -9 -24z"/>
<path d="M4206 3108 c-8 -18 -30 -67 -49 -109 l-35 -76 34 -17 c19 -9 42 -16
50 -16 19 0 115 73 167 127 l38 40 -91 41 c-50 23 -93 42 -95 42 -3 0 -11 -15
-19 -32z"/>
<path d="M3680 2898 c-23 -51 -44 -98 -47 -105 -3 -7 15 -15 47 -22 56 -12
218 -15 245 -4 14 5 69 103 62 109 -7 6 -250 114 -256 114 -5 0 -27 -42 -51
-92z"/>
<path d="M4075 2820 c-3 -6 1 -7 9 -4 18 7 21 14 7 14 -6 0 -13 -4 -16 -10z"/>
<path d="M1016 4516 c-54 -20 -106 -65 -141 -121 -27 -44 -30 -56 -30 -134 0
-74 4 -92 25 -128 14 -23 214 -317 445 -652 409 -594 421 -610 465 -627 166
-63 323 -165 450 -293 152 -154 258 -327 316 -517 l28 -91 58 38 c33 21 73 41
91 44 18 4 35 9 39 11 3 2 -8 32 -25 66 -28 58 -31 73 -37 195 -6 124 -8 135
-36 180 -68 108 -1329 1931 -1358 1961 -17 19 -49 43 -71 54 -52 27 -165 34
-219 14z m48 -241 c23 -35 20 -62 -8 -80 -19 -13 -29 -14 -45 -5 -40 21 -52
67 -25 94 23 24 59 20 78 -9z m322 -484 c188 -283 225 -344 220 -365 -7 -27
-35 -41 -63 -31 -17 5 -444 637 -459 678 -9 23 22 57 53 57 19 0 59 -54 249
-339z"/>
<path d="M1225 2830 c-224 -20 -452 -112 -626 -253 l-61 -50 396 -396 396
-396 154 154 153 153 -50 67 c-63 82 -131 224 -157 327 -25 95 -35 258 -22
337 8 49 7 57 -7 57 -9 0 -32 2 -51 4 -19 2 -75 0 -125 -4z"/>
<path d="M1516 2811 c-13 -21 -18 -191 -7 -258 23 -147 92 -309 175 -408 l25
-30 208 207 208 208 -39 32 c-136 114 -291 192 -470 238 -91 23 -93 23 -100
11z"/>
<path d="M3306 2437 c-18 -39 -68 -148 -111 -240 -42 -93 -73 -172 -69 -177
14 -13 95 -25 145 -22 l47 3 96 209 c53 115 96 213 96 219 0 6 -6 11 -13 11
-7 0 -45 16 -85 35 l-73 35 -33 -73z"/>
<path d="M422 2403 c-162 -195 -262 -475 -262 -737 0 -71 3 -87 14 -83 36 14
180 18 266 8 99 -12 235 -53 317 -95 27 -13 82 -49 124 -79 l77 -55 151 152
151 151 -393 393 c-215 215 -395 392 -399 392 -3 0 -24 -21 -46 -47z"/>
<path d="M1982 2247 l-204 -204 39 -30 c126 -97 261 -153 420 -173 79 -11 220
-4 244 10 21 14 -33 198 -96 326 -54 112 -166 274 -188 274 -7 0 -104 -92
-215 -203z"/>
<path d="M1557 1822 c-81 -81 -147 -152 -147 -157 0 -9 676 -686 758 -760 l33
-29 25 29 c155 186 251 417 274 663 12 130 6 185 -19 178 -46 -13 -167 -16
-250 -6 -165 19 -333 87 -462 186 -32 24 -59 44 -61 44 -2 0 -70 -66 -151
-148z"/>
<path d="M3790 1933 c-289 -20 -528 -39 -531 -45 -12 -20 -50 -221 -42 -228
15 -13 1160 -91 1188 -80 26 10 290 174 313 195 10 9 -9 28 -92 89 -58 42
-121 83 -140 91 -46 20 -77 19 -696 -22z"/>
<path d="M2770 1944 c-68 -18 -124 -54 -151 -97 -17 -27 -20 -44 -16 -112 6
-113 -9 -265 -36 -375 l-24 -94 30 -28 c33 -30 104 -58 147 -58 l26 0 82 383
c45 210 82 385 82 390 0 12 -81 7 -140 -9z"/>
<path d="M3010 1933 c0 -1 -36 -172 -81 -379 -44 -207 -78 -382 -76 -389 6
-15 127 -40 137 -28 4 4 42 175 85 378 43 204 80 375 82 381 2 7 -26 17 -71
26 -42 8 -76 13 -76 11z"/>
<path d="M1176 1441 l-148 -149 40 -53 c92 -124 148 -246 177 -384 16 -80 22
-278 10 -328 l-7 -27 110 0 c261 0 528 99 737 275 l30 25 -395 395 c-217 217
-397 395 -400 395 -3 0 -72 -67 -154 -149z"/>
<path d="M3186 1552 c-11 -19 -27 -125 -19 -132 15 -14 1097 -403 1118 -403
11 1 107 38 213 84 l194 82 -142 142 -142 142 -81 6 c-45 4 -298 22 -562 42
-264 19 -501 37 -527 39 -26 3 -49 2 -52 -2z"/>
<path d="M225 1491 c-52 -8 -54 -25 -20 -144 44 -154 137 -330 228 -432 l36
-40 208 208 208 207 -30 25 c-161 135 -422 208 -630 176z"/>
<path d="M3110 1209 c-13 -63 -19 -114 -14 -119 5 -4 239 -132 520 -284 585
-316 528 -297 724 -246 63 17 121 33 127 35 15 5 -186 296 -220 318 -17 11
-1097 407 -1110 407 -2 0 -14 -50 -27 -111z"/>
<path d="M746 1011 l-208 -208 61 -50 c78 -63 195 -132 293 -172 78 -31 246
-76 255 -67 11 10 23 155 18 206 -10 89 -34 195 -62 262 -22 57 -123 220 -142
232 -4 3 -101 -89 -215 -203z"/>
<path d="M2617 970 c-87 -22 -173 -85 -220 -161 -8 -14 -23 -52 -33 -84 -44
-152 37 -323 186 -394 46 -22 69 -26 140 -26 71 0 94 4 141 26 72 34 134 96
168 168 22 47 26 70 26 141 0 73 -4 93 -28 142 -35 71 -119 150 -184 172 -61
21 -147 28 -196 16z"/>
<path d="M3385 754 c104 -151 93 -144 159 -96 66 47 76 34 -108 132 l-119 63
68 -99z"/>
<path d="M3562 549 c-91 -62 -132 -96 -132 -109 0 -25 60 -70 110 -81 28 -6
51 -5 79 5 46 15 198 116 236 157 l27 27 -85 46 c-46 25 -88 46 -93 46 -5 0
-69 -41 -142 -91z"/>
</g>
</svg>
