<?xml version="1.0" standalone="no"?>
<!DOCTYPE svg PUBLIC "-//W3C//DTD SVG 20010904//EN"
 "http://www.w3.org/TR/2001/REC-SVG-20010904/DTD/svg10.dtd">
<svg version="1.0" xmlns="http://www.w3.org/2000/svg"
 width="550.000000pt" height="550.000000pt" viewBox="0 0 550.000000 550.000000"
 preserveAspectRatio="xMidYMid meet">
<metadata>
Created by potrace 1.16, written by Peter Selinger 2001-2019
</metadata>
<g transform="translate(0.000000,550.000000) scale(0.100000,-0.100000)"
fill="#fff" stroke="none">
<path d="M3645 5071 c-190 -50 -331 -127 -435 -238 -172 -184 -182 -412 -27
-600 47 -57 147 -138 204 -166 24 -12 43 -25 43 -29 0 -5 -34 -67 -76 -139
-42 -72 -74 -132 -72 -134 7 -7 457 82 668 133 195 46 333 93 464 158 202 100
322 209 372 335 52 132 19 292 -87 415 -107 124 -265 214 -465 265 -108 27
-129 29 -298 29 -166 -1 -190 -3 -291 -29z m450 -195 c60 -28 77 -46 106 -110
38 -86 15 -155 -69 -206 -79 -48 -102 -70 -102 -96 0 -24 -1 -24 -91 -24 l-91
0 7 52 c10 68 28 94 86 124 61 31 83 61 70 97 -20 53 -103 44 -124 -13 -11
-29 -11 -29 -109 -32 -54 -2 -98 -2 -98 -2 0 1 9 31 20 66 21 69 57 111 125
147 59 31 201 30 270 -3z m-55 -601 l0 -95 -100 0 -100 0 0 95 0 95 100 0 100
0 0 -95z"/>
<path d="M1662 4960 c-111 -17 -212 -71 -300 -161 -162 -165 -193 -425 -74
-629 145 -250 472 -335 728 -189 54 30 138 111 177 169 41 60 75 161 82 240
17 189 -71 375 -226 481 -112 76 -255 109 -387 89z"/>
<path d="M2482 4070 c-183 -148 -347 -281 -366 -295 l-33 -25 -367 7 -366 6 0
-24 c0 -13 -9 -181 -20 -374 -10 -192 -24 -462 -30 -600 -6 -137 -17 -360 -25
-495 -8 -135 -15 -260 -15 -277 l0 -33 219 0 218 0 103 218 c57 119 140 294
185 387 45 94 89 186 98 205 15 33 32 206 53 523 l6 98 344 322 344 322 0 152
c0 84 -4 153 -8 153 -5 0 -158 -121 -340 -270z"/>
<path d="M715 3330 c-60 -16 -114 -30 -119 -30 -4 0 -6 -12 -4 -27 6 -33 80
-328 109 -431 11 -40 24 -92 28 -115 12 -56 259 -1043 272 -1084 l11 -33 100
0 c76 0 99 -3 95 -12 -3 -7 -62 -138 -131 -290 -69 -153 -126 -281 -126 -286
0 -4 12 -13 28 -19 15 -6 53 -22 85 -37 l58 -26 55 118 c79 168 81 172 107
232 14 30 38 84 55 120 16 36 44 95 61 133 l31 67 220 -2 221 -3 24 -55 c45
-104 146 -335 155 -355 77 -175 114 -255 117 -255 3 0 162 70 171 75 4 3 -164
393 -233 543 l-25 52 95 0 95 0 0 145 0 145 -163 2 -164 3 71 146 c39 80 93
193 120 250 27 57 65 137 84 177 l35 72 458 0 459 0 0 90 0 90 -512 -2 -512
-3 -13 -25 c-19 -36 -193 -402 -193 -405 0 -1 -43 -91 -95 -199 l-95 -196
-260 0 -260 0 -5 23 c-3 12 -69 274 -146 582 -77 308 -147 585 -154 615 -53
229 -57 240 -79 240 -11 -1 -70 -14 -131 -30z"/>
<path d="M2189 2243 c-28 -60 -69 -145 -90 -190 -21 -45 -39 -84 -39 -87 0 -3
106 -6 235 -6 l235 0 0 -545 0 -545 245 0 245 0 0 740 0 740 -390 0 -390 0
-51 -107z"/>
</g>
</svg>
