<?xml version="1.0" standalone="no"?>
<!DOCTYPE svg PUBLIC "-//W3C//DTD SVG 20010904//EN"
 "http://www.w3.org/TR/2001/REC-SVG-20010904/DTD/svg10.dtd">
<svg version="1.0" xmlns="http://www.w3.org/2000/svg"
 width="259.000000pt" height="264.000000pt" viewBox="0 0 259.000000 264.000000"
 preserveAspectRatio="xMidYMid meet" fill="#fff">

<g transform="translate(0.000000,264.000000) scale(0.100000,-0.100000)"
 stroke="none">
<path d="M1320 2475 c0 -8 -7 -15 -15 -15 -8 0 -15 5 -15 10 0 13 -36 13 -61
0 -24 -13 -25 -52 -1 -74 15 -13 19 -33 21 -102 1 -82 0 -88 -29 -124 -34 -43
-40 -85 -12 -92 9 -2 85 -2 167 1 141 6 150 7 153 26 2 12 -11 40 -28 63 -27
37 -30 49 -30 114 0 45 6 84 15 102 20 37 19 82 -1 90 -24 9 -54 7 -54 -4 0
-5 -7 -10 -15 -10 -8 0 -15 7 -15 15 0 11 -11 15 -40 15 -29 0 -40 -4 -40 -15z"/>
<path d="M938 2450 c-10 -6 -14 -18 -11 -31 5 -17 13 -20 42 -18 20 2 48 -1
64 -5 22 -7 31 -4 47 15 17 22 18 25 3 37 -20 14 -121 16 -145 2z"/>
<path d="M872 2407 c-27 -28 -28 -38 -4 -32 9 3 3 -1 -15 -10 -43 -20 -59 -68
-42 -127 7 -24 12 -47 10 -51 -3 -16 37 -72 69 -95 36 -27 100 -41 100 -23 0
9 6 8 21 -2 39 -28 128 12 130 57 0 12 3 15 6 9 9 -24 21 -13 46 40 26 56 27
114 0 124 -11 4 -11 7 2 17 14 10 12 17 -15 58 -17 25 -37 49 -45 52 -35 13
-69 -29 -41 -50 12 -9 10 -11 -14 -11 -17 0 -30 4 -30 8 0 11 -50 17 -56 7 -4
-6 -10 -5 -15 3 -6 11 -14 11 -39 2 -28 -10 -52 -2 -31 12 11 6 4 35 -8 35 -4
0 -17 -10 -29 -23z m289 -74 c13 -16 12 -17 -3 -4 -10 7 -18 15 -18 17 0 8 8
3 21 -13z m-204 -85 c-3 -8 -6 -5 -6 6 -1 11 2 17 5 13 3 -3 4 -12 1 -19z"/>
<path d="M1657 2389 c-38 -10 -73 -53 -93 -113 -20 -59 -13 -110 18 -137 61
-53 178 -87 248 -71 33 7 35 9 37 57 2 55 23 114 47 135 25 20 19 36 -23 69
-70 55 -163 79 -234 60z m69 -35 c-5 -13 0 -16 28 -12 19 2 33 0 30 -4 -3 -4
8 -14 24 -22 23 -12 32 -12 42 -3 10 10 11 8 6 -10 -4 -12 -2 -24 4 -28 5 -3
10 -11 10 -17 0 -6 -9 -3 -21 8 -17 16 -22 16 -31 4 -8 -12 -9 -12 -4 2 3 11
-3 23 -17 33 -20 14 -23 14 -34 -2 -12 -15 -13 -15 -13 5 0 16 -6 22 -23 22
-13 0 -28 -5 -35 -12 -9 -9 -12 -9 -12 0 0 8 -9 10 -26 6 -19 -5 -25 -4 -20 5
4 6 17 11 29 11 12 0 31 7 41 15 25 19 30 19 22 -1z"/>
<path d="M1532 2338 c-41 -30 -46 -47 -26 -97 19 -47 34 -53 34 -13 1 24 12
60 35 115 10 23 -4 22 -43 -5z"/>
<path d="M623 2284 c-3 -8 0 -26 7 -40 10 -18 22 -24 46 -24 28 0 33 4 39 30
4 16 4 34 0 40 -10 17 -85 12 -92 -6z"/>
<path d="M1927 2252 c-40 -44 -64 -162 -34 -162 26 0 97 59 97 81 0 22 -27 86
-40 94 -4 2 -15 -3 -23 -13z"/>
<path d="M508 2203 c-18 -22 -13 -43 11 -43 27 0 42 20 30 42 -12 23 -22 23
-41 1z"/>
<path d="M579 2187 c-41 -27 -79 -98 -79 -147 0 -41 34 -105 71 -132 113 -84
276 7 266 149 -4 58 -38 113 -87 138 -45 23 -130 19 -171 -8z m176 -50 c59
-59 56 -139 -7 -192 -39 -33 -68 -33 -68 0 0 14 -5 25 -11 25 -7 0 -9 -10 -7
-25 11 -57 -85 -10 -112 55 -18 44 -4 98 35 137 29 29 39 33 85 33 46 0 56 -4
85 -33z"/>
<path d="M660 2140 c0 -11 5 -20 10 -20 6 0 10 9 10 20 0 11 -4 20 -10 20 -5
0 -10 -9 -10 -20z"/>
<path d="M726 2124 c-9 -22 3 -32 14 -14 12 19 12 30 1 30 -5 0 -12 -7 -15
-16z"/>
<path d="M580 2117 c0 -8 7 -18 16 -21 11 -4 14 -1 12 11 -4 21 -28 30 -28 10z"/>
<path d="M660 2093 c0 -10 -3 -28 -6 -40 -5 -19 -2 -23 16 -23 18 0 21 4 16
23 -3 12 -6 30 -6 40 0 9 -4 17 -10 17 -5 0 -10 -8 -10 -17z"/>
<path d="M552 2048 c5 -15 28 -18 29 -3 0 6 -7 12 -17 13 -10 3 -15 -1 -12
-10z"/>
<path d="M755 2051 c-7 -12 12 -24 25 -16 11 7 4 25 -10 25 -5 0 -11 -4 -15
-9z"/>
<path d="M730 1988 c0 -18 18 -34 28 -24 3 4 -2 14 -11 23 -16 16 -17 16 -17
1z"/>
<path d="M596 1974 c-4 -9 -4 -19 -2 -21 8 -8 26 8 26 23 0 19 -16 18 -24 -2z"/>
<path d="M1957 2075 c-51 -36 -87 -109 -87 -180 0 -82 19 -118 84 -160 30 -19
58 -44 61 -56 4 -11 4 -56 0 -100 l-7 -79 41 0 40 0 -1 78 c-2 105 7 138 40
150 108 39 137 200 55 310 -33 44 -72 62 -135 62 -41 0 -62 -6 -91 -25z"/>
<path d="M1192 2043 c3 -16 20 -18 158 -21 150 -2 190 4 176 27 -5 7 -62 11
-172 11 -152 0 -165 -1 -162 -17z"/>
<path d="M1609 2039 c-19 -19 -20 -28 -14 -73 14 -92 13 -102 -11 -152 -14
-27 -23 -59 -21 -71 3 -19 1 -20 -20 -12 -34 13 -104 -9 -128 -39 -10 -15 -20
-48 -23 -77 -4 -44 0 -55 22 -82 49 -59 126 -68 178 -20 30 28 108 33 108 7 0
-21 41 -40 84 -40 53 0 69 27 74 125 4 72 1 90 -18 130 -26 54 -35 130 -21
181 17 62 -21 110 -68 85 -29 -16 -34 -44 -20 -106 10 -45 10 -63 -1 -96 -8
-22 -18 -43 -23 -46 -6 -3 -7 -1 -3 5 4 6 0 33 -9 59 -13 37 -15 67 -10 129 6
78 5 83 -16 98 -30 21 -35 20 -60 -5z m-69 -348 c0 -6 -4 -13 -10 -16 -5 -3
-10 1 -10 9 0 9 5 16 10 16 6 0 10 -4 10 -9z m50 -41 c0 -5 -4 -10 -10 -10 -5
0 -10 5 -10 10 0 6 5 10 10 10 6 0 10 -4 10 -10z"/>
<path d="M912 2012 c-20 -2 -36 -10 -39 -20 -4 -9 -12 -21 -20 -25 -17 -11
-17 -84 1 -94 8 -4 15 -17 18 -28 2 -16 12 -20 41 -21 32 -1 40 3 48 23 5 13
8 29 6 36 -1 9 29 13 111 15 l112 3 0 -30 c0 -34 13 -45 53 -47 19 -1 31 5 39
19 6 12 17 28 25 35 20 20 16 70 -7 89 -11 10 -20 23 -20 31 0 9 -12 12 -42
10 -40 -3 -43 -5 -46 -35 l-3 -33 -109 0 -109 0 -7 35 c-7 41 -8 42 -52 37z"/>
<path d="M1362 1954 c-25 -28 -32 -45 -32 -77 0 -23 7 -50 14 -60 14 -18 15
-18 25 0 10 15 10 14 5 -8 -5 -24 -2 -28 30 -39 44 -14 88 -2 121 34 33 35 39
76 20 122 -16 37 -17 38 -31 20 -8 -11 -14 -26 -14 -35 0 -8 -3 -11 -6 -8 -4
4 -1 20 6 38 17 39 4 49 -61 49 -40 0 -49 -5 -77 -36z m25 -96 c-2 -13 -4 -3
-4 22 0 25 2 35 4 23 2 -13 2 -33 0 -45z m110 -20 c-3 -8 -6 -5 -6 6 -1 11 2
17 5 13 3 -3 4 -12 1 -19z"/>
<path d="M342 1945 c-74 -23 -112 -72 -112 -145 0 -34 -7 -50 -40 -89 -22 -26
-40 -52 -40 -57 0 -5 17 -10 38 -11 20 -1 62 -13 92 -27 35 -16 63 -23 80 -19
31 7 127 87 135 112 3 10 19 21 35 25 29 5 30 7 30 65 0 50 -4 65 -26 91 -31
36 -93 70 -126 69 -13 0 -42 -6 -66 -14z"/>
<path d="M624 1794 l-8 -69 -6 45 -6 45 -16 -37 c-9 -21 -32 -78 -50 -128 -18
-49 -39 -90 -45 -90 -7 0 -13 -4 -13 -10 0 -5 7 -10 15 -10 8 0 25 -14 37 -31
l23 -31 80 6 c57 5 84 11 93 23 24 33 15 43 -40 43 -29 0 -60 5 -68 10 -10 7
6 10 54 10 l68 0 -7 28 c-9 36 -74 210 -90 241 -11 22 -13 19 -21 -45z"/>
<path d="M728 1783 c-23 -26 -23 -56 1 -77 17 -16 35 -17 173 -11 84 4 180 13
213 20 53 12 161 14 220 4 16 -3 20 1 20 26 0 25 -4 29 -20 26 -40 -7 -171 -4
-240 7 -38 6 -133 14 -210 18 -131 6 -141 5 -157 -13z"/>
<path d="M2202 1720 c-96 -59 -97 -207 -1 -264 15 -9 48 -16 74 -16 162 0 214
209 69 280 -51 25 -100 25 -142 0z m133 -10 c3 -5 2 -10 -4 -10 -5 0 -13 5
-16 10 -3 6 -2 10 4 10 5 0 13 -4 16 -10z m-45 -20 c0 -18 -41 -51 -58 -48
-21 4 -28 38 -10 49 18 12 68 11 68 -1z m-124 -42 c-9 -12 -16 -19 -16 -15 0
11 24 47 28 42 2 -2 -3 -14 -12 -27z m232 -4 c-4 -3 -12 5 -18 18 -12 22 -12
22 6 6 10 -10 15 -20 12 -24z m-94 -19 c19 -13 23 -21 17 -42 -10 -37 -34 -50
-64 -34 -41 22 -28 79 21 90 1 1 13 -6 26 -14z m91 -25 c10 -17 -5 -68 -22
-74 -19 -8 -43 22 -35 44 13 37 43 53 57 30z m-248 -32 c-3 -8 -6 -5 -6 6 -1
11 2 17 5 13 3 -3 4 -12 1 -19z m91 -30 c19 -19 15 -58 -5 -58 -48 1 -77 70
-30 70 13 0 28 -5 35 -12z m132 -48 c0 -5 -10 -15 -22 -21 -23 -12 -23 -12 -4
10 21 23 26 26 26 11z"/>
<path d="M1912 1688 c-22 -22 -15 -67 12 -80 29 -13 51 -6 65 20 23 42 -43 94
-77 60z"/>
<path d="M1265 1683 c-31 -8 -38 -19 -37 -58 l1 -35 -100 0 c-96 0 -100 1 -94
20 8 25 -31 42 -89 38 -36 -3 -41 -6 -41 -27 0 -32 29 -50 55 -33 44 27 40 7
-11 -58 -30 -38 -44 -49 -52 -41 -6 6 -39 11 -73 11 -57 0 -64 -3 -106 -39
-82 -73 -85 -169 -7 -243 62 -59 148 -64 216 -12 19 15 42 42 50 62 l14 35 62
-6 c86 -8 101 2 93 62 -5 42 -3 52 21 83 33 43 92 76 104 57 4 -7 -4 -21 -21
-35 -78 -66 -79 -174 -1 -251 57 -58 167 -57 221 1 63 66 76 126 41 194 -33
65 -79 92 -158 94 -44 1 -45 1 -69 56 -35 79 -33 92 16 92 43 0 50 -11 25 -44
-19 -25 -19 -36 -2 -36 33 0 65 66 45 92 -14 17 -71 29 -103 21z m-15 -131 c0
-5 -12 -15 -27 -23 -41 -21 -83 -60 -100 -93 l-15 -30 -17 35 c-9 19 -24 53
-34 77 l-17 42 105 0 c58 0 105 -4 105 -8z m-220 -48 c0 -6 6 -24 14 -40 8
-16 18 -41 21 -56 6 -25 5 -27 -32 -30 -36 -3 -40 0 -64 42 l-27 45 31 42 c27
39 31 41 43 25 7 -9 14 -22 14 -28z m-144 -47 c3 -3 -13 -30 -35 -60 -23 -29
-41 -59 -41 -64 0 -6 32 -14 70 -18 82 -8 88 -19 37 -70 -64 -64 -152 -54
-204 24 -60 89 16 209 125 198 24 -3 45 -7 48 -10z m529 -1 c65 -28 95 -119
60 -186 -16 -31 -80 -70 -113 -70 -35 0 -87 28 -109 59 -33 43 -31 113 3 158
14 18 29 33 33 33 5 0 18 -27 30 -60 12 -32 26 -62 32 -66 21 -12 23 8 5 54
-32 82 -32 92 -2 92 15 0 42 -6 61 -14z m-480 -52 c14 -22 15 -28 4 -35 -15
-10 -69 -12 -69 -4 0 6 42 65 46 65 1 0 9 -12 19 -26z m115 -64 c0 -16 -7 -20
-30 -20 -23 0 -30 4 -30 20 0 16 7 20 30 20 23 0 30 -4 30 -20z m75 0 c0 -19
-35 -26 -46 -9 -4 7 -5 17 -2 22 8 14 48 3 48 -13z m-170 0 c4 -6 -12 -9 -42
-9 -47 2 -47 2 -13 9 19 4 38 8 42 9 4 0 10 -3 13 -9z"/>
<path d="M238 1531 c-158 -100 -86 -351 100 -351 46 0 105 21 135 48 66 59 77
190 21 258 -65 80 -171 99 -256 45z m51 -10 c-32 -27 -82 -45 -77 -28 4 13 89
59 96 52 3 -2 -6 -13 -19 -24z m118 14 c20 -8 34 -17 32 -20 -7 -6 -93 15
-103 26 -16 15 30 11 71 -6z m54 -67 c17 -17 27 -38 24 -45 -3 -8 -5 -22 -5
-30 0 -12 -7 -14 -27 -8 -35 8 -62 42 -63 76 0 50 29 53 71 7z m-190 -9 c17
-33 -6 -96 -38 -102 -18 -3 -27 2 -37 22 -17 34 2 83 35 92 13 4 25 7 26 8 1
1 7 -9 14 -20z m119 -49 c19 -26 20 -34 10 -65 -9 -27 -17 -35 -35 -35 -13 0
-30 -3 -38 -6 -9 -3 -23 6 -35 23 -18 26 -19 31 -5 65 12 30 21 38 46 41 18 2
33 5 34 5 1 1 11 -12 23 -28z m130 -38 c0 -20 -5 -44 -10 -52 -7 -11 -10 2
-10 43 0 36 4 56 10 52 6 -3 10 -23 10 -43z m-326 -67 l6 -40 -20 40 c-11 22
-19 51 -19 65 l0 25 14 -25 c7 -14 16 -43 19 -65z m215 -29 c9 -11 9 -20 2
-34 -19 -36 -77 -44 -104 -14 -15 16 -15 20 -1 40 18 26 84 31 103 8z m81 -5
c-11 -22 -69 -66 -76 -59 -5 6 67 78 78 78 5 0 4 -9 -2 -19z m-241 -25 c15 -8
34 -22 42 -32 13 -15 12 -16 -11 -9 -29 9 -69 37 -70 48 0 10 7 9 39 -7z"/>
<path d="M1958 1450 c-25 -26 -29 -36 -24 -63 9 -45 39 -71 81 -71 65 0 103
61 73 117 -29 56 -84 63 -130 17z"/>
<path d="M1646 1427 c-58 -32 -96 -109 -96 -192 0 -34 6 -80 14 -102 12 -34
12 -40 0 -40 -8 0 -14 8 -14 17 0 31 -32 42 -92 31 -5 0 -8 -20 -8 -43 l0 -43
-130 0 -130 0 0 41 c0 27 -5 44 -14 47 -23 9 -26 -2 -26 -105 0 -89 2 -99 18
-96 12 2 19 16 22 43 l5 40 125 0 125 0 5 -40 c5 -43 34 -62 43 -28 4 17 5 17
6 0 2 -28 45 -18 49 11 2 12 9 22 17 22 16 0 26 38 18 70 -5 23 -2 21 36 -15
58 -56 81 -108 82 -189 1 -55 4 -66 16 -62 8 3 18 6 23 6 4 0 8 27 9 60 1 77
20 121 75 179 58 63 79 122 74 208 -5 89 -30 138 -87 174 -56 36 -110 38 -165
6z m74 -17 c0 -5 -6 -10 -14 -10 -8 0 -18 5 -21 10 -3 6 3 10 14 10 12 0 21
-4 21 -10z m50 0 c0 -5 -7 -10 -15 -10 -8 0 -15 5 -15 10 0 6 7 10 15 10 8 0
15 -4 15 -10z m-100 -45 c0 -29 -34 -36 -44 -9 -8 21 1 34 25 34 14 0 19 -7
19 -25z m100 -6 c0 -10 -7 -19 -15 -19 -9 0 -15 9 -15 25 0 18 4 23 15 19 8
-4 15 -15 15 -25z m52 19 c7 -19 -2 -38 -18 -38 -8 0 -14 8 -14 18 0 30 23 44
32 20z m-102 -18 c0 -11 -7 -20 -15 -20 -8 0 -15 9 -15 20 0 11 7 20 15 20 8
0 15 -9 15 -20z m-110 -50 c0 -11 -6 -20 -14 -20 -9 0 -12 7 -9 20 3 11 9 20
14 20 5 0 9 -9 9 -20z m58 -3 c2 -12 -3 -17 -17 -17 -15 0 -21 6 -21 21 0 25
33 22 38 -4z m52 1 c0 -10 -7 -18 -15 -18 -8 0 -15 8 -15 18 0 10 7 19 15 19
8 0 15 -9 15 -19z m50 0 c0 -10 -7 -18 -15 -18 -8 0 -15 8 -15 18 0 10 7 19
15 19 8 0 15 -9 15 -19z m50 -4 c0 -8 -7 -14 -15 -14 -8 0 -15 9 -15 20 0 13
5 18 15 14 8 -4 15 -12 15 -20z m38 -13 c-15 -5 -21 7 -13 26 7 17 8 17 15 -2
4 -11 3 -22 -2 -24z m-248 -36 c0 -8 -7 -15 -15 -15 -8 0 -15 7 -15 15 0 8 7
15 15 15 8 0 15 -7 15 -15z m60 0 c0 -8 -9 -15 -20 -15 -11 0 -20 7 -20 15 0
8 9 15 20 15 11 0 20 -7 20 -15z m50 0 c0 -8 -9 -15 -20 -15 -11 0 -20 7 -20
15 0 8 9 15 20 15 11 0 20 -7 20 -15z m50 0 c0 -8 -7 -15 -15 -15 -8 0 -15 7
-15 15 0 8 7 15 15 15 8 0 15 -7 15 -15z m58 3 c-7 -19 -38 -22 -38 -4 0 10 9
16 21 16 12 0 19 -5 17 -12z m42 -3 c0 -8 -7 -15 -15 -15 -8 0 -15 7 -15 15 0
8 7 15 15 15 8 0 15 -7 15 -15z m-260 -49 c0 -8 -7 -16 -15 -20 -10 -4 -15 1
-15 14 0 11 7 20 15 20 8 0 15 -6 15 -14z m60 -1 c0 -9 -9 -15 -25 -15 -16 0
-25 6 -25 15 0 9 9 15 25 15 16 0 25 -6 25 -15z m50 -4 c0 -14 -5 -18 -20 -14
-11 3 -20 12 -20 19 0 8 9 14 20 14 13 0 20 -7 20 -19z m50 5 c0 -8 -7 -16
-15 -20 -10 -4 -15 1 -15 14 0 11 7 20 15 20 8 0 15 -6 15 -14z m50 -6 c0 -11
-7 -20 -15 -20 -8 0 -15 9 -15 20 0 11 7 20 15 20 8 0 15 -9 15 -20z m50 0 c0
-11 -7 -20 -15 -20 -8 0 -15 9 -15 20 0 11 7 20 15 20 8 0 15 -9 15 -20z
m-260 -50 c0 -11 -4 -20 -9 -20 -5 0 -11 9 -14 20 -3 13 0 20 9 20 8 0 14 -9
14 -20z m60 16 c0 -18 -15 -36 -31 -36 -12 0 -19 7 -19 20 0 15 7 20 25 20 14
0 25 -2 25 -4z m50 -16 c0 -13 -7 -20 -20 -20 -13 0 -20 7 -20 20 0 13 7 20
20 20 13 0 20 -7 20 -20z m50 -5 c0 -18 -4 -23 -15 -19 -8 4 -15 15 -15 25 0
10 7 19 15 19 9 0 15 -9 15 -25z m50 0 c0 -16 -6 -25 -15 -25 -9 0 -15 9 -15
25 0 16 6 25 15 25 9 0 15 -9 15 -25z m40 6 c0 -11 -4 -23 -10 -26 -6 -4 -10
5 -10 19 0 14 5 26 10 26 6 0 10 -9 10 -19z m-200 -45 c0 -2 3 -12 6 -21 5
-13 2 -16 -17 -13 -31 4 -39 38 -10 38 12 0 21 -2 21 -4z m60 -16 c0 -13 -7
-20 -20 -20 -13 0 -20 7 -20 20 0 13 7 20 20 20 13 0 20 -7 20 -20z m50 0 c0
-11 -7 -20 -15 -20 -8 0 -15 9 -15 20 0 11 7 20 15 20 8 0 15 -9 15 -20z m53
6 c6 -16 -16 -40 -26 -29 -4 3 -7 15 -7 25 0 21 25 24 33 4z m-103 -61 c0 -17
-2 -18 -24 -9 -23 9 -20 24 4 24 11 0 20 -7 20 -15z m50 6 c0 -5 -7 -11 -15
-15 -9 -3 -15 0 -15 9 0 8 7 15 15 15 8 0 15 -4 15 -9z m-273 -43 c-3 -8 -6
-5 -6 6 -1 11 2 17 5 13 3 -3 4 -12 1 -19z m240 -36 l-11 -33 -13 32 c-7 17
-13 32 -13 33 0 0 10 1 23 1 22 0 23 -2 14 -33z"/>
<path d="M2272 1410 c-94 -58 -62 -200 45 -200 68 0 113 41 113 104 0 84 -89
138 -158 96z m118 -60 c0 -5 -4 -10 -10 -10 -5 0 -10 5 -10 10 0 6 5 10 10 10
6 0 10 -4 10 -10z m-50 -20 c0 -5 -2 -10 -4 -10 -3 0 -8 5 -11 10 -3 6 -1 10
4 10 6 0 11 -4 11 -10z"/>
<path d="M595 923 c8 -522 7 -514 68 -528 15 -4 27 -10 27 -14 0 -11 110 -78
141 -86 32 -8 97 17 106 41 8 21 -37 59 -80 68 -53 11 -153 64 -180 95 -22 27
-26 42 -31 133 -8 142 -17 454 -17 626 0 138 0 142 -21 142 l-21 0 8 -477z"/>
<path d="M2005 1275 c-22 -13 -52 -39 -67 -57 -24 -28 -28 -41 -28 -95 0 -66
12 -83 60 -83 12 0 19 -4 16 -8 -13 -21 125 -122 166 -122 15 0 52 13 81 29
28 16 69 33 90 36 20 4 37 11 37 15 0 4 -22 27 -48 52 -26 25 -46 50 -44 57 6
19 -18 105 -36 126 -31 36 -50 46 -109 60 -72 18 -70 18 -118 -10z"/>
<path d="M942 1194 c-21 -14 -22 -22 -22 -132 1 -116 14 -288 26 -337 4 -18
13 -25 29 -25 20 0 25 8 35 53 6 28 14 136 17 238 l6 186 -24 16 c-29 21 -39
21 -67 1z"/>
<path d="M755 1140 c-47 -10 -73 -28 -90 -60 -17 -33 -20 -76 -5 -85 6 -3 10
-14 10 -24 0 -10 10 -27 23 -39 24 -23 74 -28 127 -13 31 9 70 65 70 102 0 38
-34 93 -67 109 -36 18 -33 18 -68 10z"/>
<path d="M1107 1144 c-4 -4 -7 -18 -7 -31 0 -17 -5 -23 -17 -21 -15 2 -19 -6
-21 -49 -2 -42 0 -53 12 -53 9 0 18 -11 22 -25 4 -16 13 -25 25 -25 18 0 20 7
17 102 -3 94 -11 121 -31 102z"/>
<path d="M328 1122 c-20 -4 -22 -13 -8 -30 7 -9 7 -9 -2 -2 -20 17 -39 11 -64
-17 -13 -16 -24 -31 -24 -35 0 -3 -3 -15 -7 -25 -6 -16 -5 -17 13 -3 14 11 14
8 -3 -11 -27 -30 -29 -53 -8 -102 18 -42 34 -55 47 -36 7 10 8 8 3 -7 -4 -16
1 -26 19 -37 35 -23 74 -31 90 -18 8 7 15 8 18 2 6 -16 54 0 92 30 38 32 56
78 56 146 0 34 -5 45 -27 62 -16 11 -22 21 -14 21 21 0 -4 25 -50 49 -36 19
-83 24 -131 13z m99 -48 c-10 -11 -57 -13 -57 -3 0 5 14 9 32 9 17 0 28 -3 25
-6z m38 -3 c3 -5 1 -12 -5 -16 -5 -3 -10 1 -10 9 0 18 6 21 15 7z m-110 -11
c-3 -5 -10 -10 -16 -10 -5 0 -9 5 -9 10 0 6 7 10 16 10 8 0 12 -4 9 -10z"/>
<path d="M1886 963 c-4 -4 -19 -8 -34 -9 -15 -1 -33 -2 -39 -3 -15 -1 -18 -71
-3 -71 6 0 10 -29 10 -67 0 -52 -5 -74 -20 -93 -22 -28 -26 -76 -7 -83 10 -4
10 -6 0 -6 -7 -1 -13 -8 -13 -16 0 -13 18 -15 127 -13 l128 3 3 38 c2 26 -4
47 -18 67 -15 22 -20 44 -20 98 0 39 5 74 10 77 6 3 10 17 10 30 0 28 -31 49
-60 40 -10 -3 -21 -1 -25 5 -7 11 -38 14 -49 3z"/>
<path d="M1203 943 c-15 -6 -17 -39 -3 -48 17 -11 11 -23 -19 -38 -26 -13 -31
-13 -44 1 -9 8 -23 12 -31 9 -18 -7 -22 -43 -5 -49 7 -2 6 -17 -2 -49 -16 -59
-6 -107 31 -146 82 -87 222 -49 252 69 11 42 10 50 -13 95 -16 31 -37 54 -58
65 -43 22 -44 23 -33 45 6 11 7 25 2 33 -9 14 -53 21 -77 13z m26 -175 c-3
-51 -1 -63 11 -63 9 0 14 8 13 20 -5 38 -5 96 -1 101 3 2 13 2 22 -2 13 -5 16
-14 12 -30 -7 -26 11 -34 20 -9 6 14 8 13 20 -2 18 -24 18 -53 -1 -53 -8 0
-15 -4 -15 -10 0 -5 7 -10 16 -10 9 0 14 -7 12 -17 -3 -12 -12 -17 -27 -15
-19 2 -21 -1 -16 -19 5 -14 2 -25 -6 -30 -23 -15 -39 -10 -39 11 0 11 -4 20
-10 20 -5 0 -10 -9 -10 -21 0 -14 -5 -19 -17 -17 -11 2 -18 12 -17 26 0 12 -5
22 -13 22 -7 0 -13 -4 -13 -10 0 -21 -19 -8 -29 20 -9 27 -8 30 10 30 10 0 19
5 19 10 0 6 -9 10 -20 10 -23 0 -24 1 -8 34 10 24 12 24 24 8 7 -9 16 -14 20
-9 4 4 2 13 -4 19 -18 18 -15 28 11 38 37 15 39 12 36 -52z"/>
<path d="M1460 868 c-25 -5 -49 -14 -54 -18 -13 -13 -8 -102 6 -116 23 -21
103 -32 160 -22 83 15 89 21 86 81 -3 44 -7 54 -28 64 -37 17 -118 23 -170 11z"/>
<path d="M2095 868 c-94 -54 -87 -184 13 -218 42 -15 70 -8 112 29 30 26 34
35 34 80 0 42 -5 56 -25 75 -50 46 -93 57 -134 34z"/>
<path d="M758 819 c-30 -22 -36 -44 -15 -53 6 -4 2 -4 -10 -2 -17 3 -24 -3
-32 -27 -24 -66 -6 -178 31 -198 12 -6 45 -9 75 -7 76 7 96 29 101 111 5 72
-7 104 -61 161 -39 41 -51 43 -89 15z m106 -110 c-8 -14 -21 -11 -21 5 0 8 6
12 14 9 7 -3 10 -9 7 -14z m11 -49 c-3 -5 -12 -10 -18 -10 -7 0 -6 4 3 10 19
12 23 12 15 0z m-2 -57 c-24 -39 -24 -39 -20 -17 3 25 16 44 28 44 5 0 2 -12
-8 -27z"/>
<path d="M1713 783 c-7 -2 -13 -15 -13 -29 0 -20 3 -22 23 -15 12 4 23 18 25
30 3 21 -8 25 -35 14z"/>
<path d="M422 748 c-13 -7 -21 -17 -18 -25 4 -9 1 -11 -5 -7 -16 10 -29 -16
-29 -59 0 -54 43 -97 97 -97 43 0 69 13 59 29 -4 6 -2 9 7 5 20 -7 41 47 32
84 -13 60 -89 97 -143 70z"/>
<path d="M1723 730 c-15 -6 -23 -18 -23 -34 0 -24 2 -25 25 -14 16 7 25 19 25
35 0 12 -1 23 -2 22 -2 0 -13 -4 -25 -9z"/>
<path d="M1580 695 c-9 -10 -10 -31 -6 -64 4 -33 1 -64 -9 -94 -13 -40 -13
-49 0 -80 8 -20 15 -42 15 -49 -1 -7 -10 10 -21 37 -16 39 -19 63 -15 109 6
63 -3 86 -35 86 -30 0 -41 -33 -29 -83 9 -35 8 -51 -6 -87 -9 -25 -19 -77 -21
-116 -5 -83 8 -104 61 -104 36 0 52 13 58 45 5 27 35 30 81 6 69 -35 137 4
137 79 0 30 -6 44 -31 64 -17 14 -43 26 -59 26 -24 0 -31 7 -50 52 -18 41 -21
61 -15 105 9 72 -21 109 -55 68z m70 -239 c0 -2 -8 -10 -17 -17 -16 -13 -17
-12 -4 4 13 16 21 21 21 13z m45 -15 c3 -5 1 -12 -5 -16 -5 -3 -10 1 -10 9 0
18 6 21 15 7z m-35 -31 c0 -5 -4 -10 -10 -10 -5 0 -10 5 -10 10 0 6 5 10 10
10 6 0 10 -4 10 -10z m-53 -47 c-3 -10 -5 -4 -5 12 0 17 2 24 5 18 2 -7 2 -21
0 -30z m93 27 c0 -5 -2 -10 -4 -10 -3 0 -8 5 -11 10 -3 6 -1 10 4 10 6 0 11
-4 11 -10z"/>
<path d="M963 683 c9 -2 23 -2 30 0 6 3 -1 5 -18 5 -16 0 -22 -2 -12 -5z"/>
<path d="M1718 670 c-10 -6 -16 -22 -16 -40 1 -24 5 -30 23 -30 18 0 22 6 23
40 2 42 -2 46 -30 30z"/>
<path d="M957 663 c-3 -5 -3 -41 -2 -80 2 -40 -1 -73 -6 -73 -5 0 -9 -9 -9
-20 0 -15 7 -20 29 -20 33 0 48 15 33 33 -5 7 -7 47 -6 90 3 71 2 77 -16 77
-10 0 -21 -3 -23 -7z"/>
<path d="M1025 609 c-4 -5 -4 -36 0 -69 5 -47 3 -67 -14 -105 -24 -53 -28
-148 -9 -190 10 -22 18 -25 59 -25 44 0 48 2 58 31 14 41 14 100 -1 136 -6 15
-12 30 -13 33 -1 3 -5 13 -10 23 -4 10 -5 46 -2 80 3 34 1 69 -4 79 -11 20
-54 25 -64 7z"/>
<path d="M1751 566 c-18 -19 -21 -31 -16 -54 12 -58 76 -84 83 -34 3 21 8 22
78 22 70 0 75 -1 84 -25 13 -34 41 -32 68 5 27 36 28 51 1 81 -27 32 -58 33
-70 3 -8 -22 -14 -24 -83 -24 -70 0 -75 1 -78 23 -4 31 -39 33 -67 3z"/>
<path d="M1261 551 c-14 -14 -21 -34 -21 -60 0 -41 -35 -143 -69 -205 -19 -33
-27 -66 -17 -66 2 0 11 -3 19 -6 10 -3 17 2 20 13 4 14 5 14 6 -4 1 -17 7 -23
24 -24 12 0 31 -2 42 -4 11 -2 23 1 28 8 6 9 10 9 13 0 6 -13 87 -7 92 7 2 5
9 7 15 5 7 -3 18 -1 26 4 12 8 10 19 -16 68 -40 77 -65 157 -65 203 1 45 -13
67 -50 75 -19 5 -32 1 -47 -14z m1 -263 c-9 -9 -12 -7 -12 12 0 19 3 21 12 12
9 -9 9 -15 0 -24z m48 12 c0 -11 -4 -20 -10 -20 -5 0 -10 9 -10 20 0 11 5 20
10 20 6 0 10 -9 10 -20z m40 5 c0 -8 -4 -15 -10 -15 -5 0 -10 7 -10 15 0 8 5
15 10 15 6 0 10 -7 10 -15z m-120 -5 c0 -5 -4 -10 -10 -10 -5 0 -10 5 -10 10
0 6 5 10 10 10 6 0 10 -4 10 -10z"/>
<path d="M801 522 c-52 -3 -53 -4 -35 -23 22 -25 56 -24 79 1 10 11 16 21 14
23 -2 1 -28 1 -58 -1z"/>
</g>
</svg>
