<?xml version="1.0" standalone="no"?>
<!DOCTYPE svg PUBLIC "-//W3C//DTD SVG 20010904//EN"
 "http://www.w3.org/TR/2001/REC-SVG-20010904/DTD/svg10.dtd">
<svg version="1.0" xmlns="http://www.w3.org/2000/svg"
 width="512.000000pt" height="512.000000pt" viewBox="0 0 512.000000 512.000000"
 preserveAspectRatio="xMidYMid meet">

<g transform="translate(0.000000,512.000000) scale(0.100000,-0.100000)"
fill="#fff" stroke="none">
<path d="M1194 5023 c-12 -2 -34 -18 -50 -34 l-29 -30 -3 -1115 -2 -1114 -519
0 c-500 0 -519 -1 -543 -20 -14 -10 -31 -32 -37 -47 -9 -21 -11 -285 -9 -1028
l3 -1000 23 -70 c71 -210 231 -373 436 -442 l81 -28 2015 0 2015 0 81 28 c205
69 365 232 436 442 l23 70 3 2147 c3 2380 7 2204 -62 2233 -31 13 -288 15
-1938 14 -1047 -1 -1913 -4 -1924 -6z m3706 -2252 c0 -1344 -3 -2057 -10
-2092 -35 -183 -184 -329 -366 -359 -64 -11 -3354 -14 -3354 -4 0 3 13 23 28
43 41 53 67 101 99 183 l28 73 3 2098 2 2097 1785 0 1785 0 0 -2039z m-3790
-1174 c0 -856 -1 -917 -18 -969 -87 -264 -368 -386 -618 -269 -122 57 -218
183 -244 320 -6 34 -10 380 -10 942 l0 889 445 0 445 0 0 -913z"/>
<path d="M2580 4466 c-14 -8 -144 -145 -289 -304 l-265 -291 -89 95 c-103 109
-140 128 -199 100 -42 -20 -62 -54 -61 -101 1 -43 6 -50 153 -206 154 -163
180 -178 247 -141 38 21 628 664 650 708 46 93 -56 189 -147 140z"/>
<path d="M2933 3973 c-63 -12 -95 -96 -61 -161 28 -53 10 -52 804 -52 l736 0
34 34 c39 39 44 77 18 127 -31 60 -15 59 -796 58 -392 -1 -723 -4 -735 -6z"/>
<path d="M2583 3208 c-12 -6 -143 -143 -290 -304 l-267 -294 -85 91 c-47 51
-100 98 -118 105 -69 29 -146 -21 -146 -94 0 -50 6 -58 164 -224 145 -153 168
-166 233 -132 41 22 630 663 653 710 44 90 -54 186 -144 142z"/>
<path d="M2914 2754 c-78 -38 -77 -151 1 -189 29 -13 125 -15 755 -15 791 0
763 -2 795 60 30 59 13 115 -45 145 -44 23 -1460 22 -1506 -1z"/>
<path d="M2583 1948 c-12 -6 -142 -143 -289 -305 l-268 -294 -88 95 c-100 107
-135 126 -190 103 -49 -21 -71 -50 -71 -97 0 -49 12 -65 172 -232 131 -136
160 -153 219 -129 25 11 536 558 634 680 55 67 49 132 -14 171 -36 22 -71 24
-105 8z"/>
<path d="M2903 1540 c-79 -48 -54 -175 38 -194 18 -3 348 -6 736 -6 771 0 756
-1 787 59 26 50 21 88 -18 127 l-34 34 -738 0 c-714 0 -740 -1 -771 -20z"/>
</g>
</svg>
