<?xml version="1.0" standalone="no"?>
<!DOCTYPE svg PUBLIC "-//W3C//DTD SVG 20010904//EN"
 "http://www.w3.org/TR/2001/REC-SVG-20010904/DTD/svg10.dtd">
<svg version="1.0" xmlns="http://www.w3.org/2000/svg"
 width="550.000000pt" height="550.000000pt" viewBox="0 0 550.000000 550.000000"
 preserveAspectRatio="xMidYMid meet">

<g transform="translate(0.000000,550.000000) scale(0.100000,-0.100000)"
fill="#fff" stroke="none">
<path d="M1514 4200 c-137 -25 -264 -91 -363 -191 -79 -78 -132 -165 -168
-274 -38 -116 -38 -284 0 -400 71 -215 227 -371 442 -442 68 -22 97 -26 200
-26 103 0 132 4 200 26 109 36 196 89 274 168 79 78 132 165 168 274 22 68 26
97 26 200 0 103 -4 132 -26 200 -90 274 -328 457 -611 470 -50 2 -114 0 -142
-5z"/>
<path d="M2970 4194 c-256 -55 -440 -281 -440 -541 0 -159 53 -288 164 -399
273 -273 735 -194 898 152 104 222 62 460 -112 634 -142 142 -318 196 -510
154z"/>
<path d="M4216 4194 c-125 -30 -240 -127 -299 -251 -30 -64 -32 -74 -32 -183
0 -109 2 -119 32 -183 87 -184 285 -291 476 -259 149 26 275 122 340 259 30
64 32 74 32 183 0 109 -2 119 -32 183 -95 200 -306 302 -517 251z"/>
<path d="M4161 2850 c-108 -14 -251 -55 -344 -98 l-81 -38 55 -31 c157 -88
331 -253 429 -406 l55 -86 473 -1 472 0 0 116 c0 114 -1 116 -32 162 -123 179
-354 318 -612 367 -100 20 -316 27 -415 15z"/>
<path d="M2856 2614 c-43 -8 -120 -28 -169 -45 -89 -29 -227 -95 -227 -108 0
-3 38 -26 83 -51 122 -67 260 -175 373 -292 96 -100 224 -275 253 -345 l13
-33 459 0 459 0 0 151 0 151 -36 61 c-103 175 -252 315 -435 406 -175 88 -329
122 -553 120 -77 0 -177 -7 -220 -15z"/>
<path d="M1431 2399 c-272 -30 -506 -112 -709 -246 -155 -103 -349 -309 -418
-445 -23 -45 -24 -57 -24 -233 l0 -185 1345 0 1345 0 0 190 0 189 -31 53
c-122 208 -341 410 -568 523 -108 54 -291 112 -427 135 -138 24 -388 33 -513
19z"/>
</g>
</svg>
