<?xml version="1.0" standalone="no"?>
<!DOCTYPE svg PUBLIC "-//W3C//DTD SVG 20010904//EN"
 "http://www.w3.org/TR/2001/REC-SVG-20010904/DTD/svg10.dtd">
<svg version="1.0" xmlns="http://www.w3.org/2000/svg"
 width="180.000000pt" height="180.000000pt" viewBox="0 0 180.000000 180.000000"
 preserveAspectRatio="xMidYMid meet">
<metadata>
Created by potrace 1.16, written by Peter Selinger 2001-2019
</metadata>
<g transform="translate(0.000000,180.000000) scale(0.100000,-0.100000)"
fill="#fff" stroke="none">
<path d="M703 1755 c-55 -24 -130 -102 -154 -161 l-23 -54 -110 0 c-126 0
-178 -11 -212 -45 l-24 -24 0 -659 c0 -640 1 -660 20 -684 36 -47 52 -48 433
-46 l359 3 -156 158 c-86 88 -161 168 -167 179 -22 41 -1 88 74 165 91 95 125
106 203 68 37 -18 76 -51 126 -106 l72 -80 100 104 c56 57 138 145 184 195
l82 90 0 303 0 302 -34 32 c-42 39 -68 45 -211 45 l-113 0 -16 48 c-21 63 -66
116 -130 152 -48 28 -57 30 -161 30 -72 -1 -121 -6 -142 -15z m217 -140 c38
-20 77 -87 91 -158 l12 -57 142 0 c158 0 182 -8 203 -70 l11 -30 -535 0 -535
0 6 23 c4 12 20 34 36 50 29 27 30 27 173 27 l144 0 6 43 c10 67 51 144 88
167 40 24 116 27 158 5z m376 -463 c20 -14 25 -45 9 -68 l-15 -24 -295 0
c-254 0 -296 2 -309 16 -19 18 -20 38 -6 65 10 18 24 19 308 19 163 0 302 -4
308 -8z m-9 -238 c28 -8 36 -42 17 -71 l-14 -23 -295 0 c-254 0 -296 2 -309
16 -9 8 -16 24 -16 34 0 10 7 26 16 34 13 14 54 16 297 16 155 0 292 -3 304
-6z"/>
<path d="M1536 758 c-32 -35 -99 -108 -149 -163 -158 -175 -229 -245 -247
-245 -10 0 -71 54 -136 120 -65 66 -125 120 -133 120 -26 0 -101 -81 -101
-110 0 -18 34 -63 126 -165 70 -77 147 -164 172 -192 64 -76 87 -73 172 20
107 120 300 326 398 428 84 87 93 100 90 130 -2 26 -14 42 -56 76 -29 24 -58
43 -65 43 -6 0 -38 -28 -71 -62z"/>
</g>
</svg>
