<?xml version="1.0" standalone="no"?>
<!DOCTYPE svg PUBLIC "-//W3C//DTD SVG 20010904//EN"
 "http://www.w3.org/TR/2001/REC-SVG-20010904/DTD/svg10.dtd">
<svg version="1.0" xmlns="http://www.w3.org/2000/svg"
 width="180.000000pt" height="180.000000pt" viewBox="0 0 180.000000 180.000000"
 preserveAspectRatio="xMidYMid meet">

<g transform="translate(0.000000,180.000000) scale(0.100000,-0.100000)"
fill="#fff" stroke="none">
<path d="M812 1611 c-295 -110 -315 -535 -30 -682 65 -34 194 -38 270 -9 75
28 151 97 191 174 30 58 32 67 32 171 0 106 -1 112 -34 173 -39 72 -105 135
-171 165 -66 29 -189 33 -258 8z"/>
<path d="M167 1063 c-11 -3 -16 -11 -13 -21 3 -9 12 -44 21 -77 9 -33 27 -99
41 -146 13 -47 27 -96 29 -109 12 -62 27 -91 44 -84 113 47 251 -47 251 -172
0 -44 -28 -111 -56 -135 -10 -9 -32 -23 -49 -32 l-29 -15 39 -17 c38 -16 203
-55 235 -55 13 0 15 30 15 212 l0 213 55 -3 c83 -5 222 -38 279 -67 l51 -25 0
-175 c0 -168 1 -175 20 -175 19 0 20 7 20 174 l0 174 48 22 c26 12 63 28 83
35 50 18 228 47 245 41 10 -4 14 -23 14 -66 0 -58 1 -60 33 -73 18 -8 48 -31
66 -53 l34 -38 -6 47 c-11 79 -54 156 -127 227 -75 74 -165 127 -297 176 l-91
33 -94 -73 -93 -73 -78 60 c-43 33 -80 64 -83 69 -9 14 -51 9 -124 -18 -122
-44 -211 -95 -282 -162 -21 -20 -39 -34 -42 -31 -2 2 -30 96 -62 208 -33 113
-63 205 -69 207 -5 1 -18 -1 -28 -3z"/>
<path d="M314 580 c-16 -5 -41 -21 -55 -36 -20 -22 -24 -36 -24 -89 0 -71 16
-98 74 -122 133 -56 244 121 135 216 -19 17 -40 31 -47 31 -7 0 -21 2 -32 4
-11 3 -34 1 -51 -4z"/>
<path d="M1410 438 c-37 -20 -70 -75 -70 -118 0 -43 33 -98 70 -118 33 -17
111 -10 143 14 95 69 49 221 -70 231 -28 2 -58 -2 -73 -9z"/>
</g>
</svg>
