<?xml version="1.0" standalone="no"?>
<!DOCTYPE svg PUBLIC "-//W3C//DTD SVG 20010904//EN"
 "http://www.w3.org/TR/2001/REC-SVG-20010904/DTD/svg10.dtd">
<svg version="1.0" xmlns="http://www.w3.org/2000/svg"
 width="550.000000pt" height="550.000000pt" viewBox="0 0 550.000000 550.000000"
 preserveAspectRatio="xMidYMid meet">
<metadata>
Created by potrace 1.16, written by Peter Selinger 2001-2019
</metadata>
<g transform="translate(0.000000,550.000000) scale(0.100000,-0.100000)"
fill="#fff" stroke="none">
<path d="M2441 5174 c-92 -33 -163 -96 -211 -186 l-24 -46 -166 -4 c-190 -4
-223 -14 -275 -87 l-30 -43 -3 -273 c-2 -185 1 -287 8 -316 15 -56 73 -114
128 -128 29 -8 238 -11 715 -9 l674 3 37 29 c76 58 76 55 76 384 0 273 -1 295
-20 332 -24 47 -71 84 -125 99 -22 6 -104 11 -181 11 l-142 0 -16 41 c-23 57
-109 144 -174 176 -70 34 -201 43 -271 17z m183 -198 c47 -20 85 -74 95 -136
6 -35 17 -60 35 -78 l26 -27 195 -3 195 -3 0 -220 0 -219 -615 0 -615 0 0 220
0 220 184 0 c102 0 196 4 209 9 38 15 67 51 67 85 1 64 51 137 110 159 28 10
80 7 114 -7z"/>
<path d="M1061 4658 c-58 -22 -125 -81 -157 -139 -19 -33 -19 -80 -22 -1893
-1 -1254 1 -1871 8 -1896 14 -53 80 -133 137 -167 l48 -28 1480 0 1480 0 42
23 c53 28 107 81 127 124 33 74 36 137 36 754 0 664 0 662 -53 697 -30 19 -66
22 -100 6 -53 -24 -52 -3 -57 -712 l-5 -659 -24 -19 c-23 -19 -60 -19 -1446
-19 -1386 0 -1423 0 -1446 19 l-24 19 -3 1819 c-1 1285 1 1826 9 1844 17 42
47 49 215 49 177 0 205 8 224 64 14 45 4 80 -32 111 -29 25 -32 25 -206 24
-154 0 -184 -3 -231 -21z"/>
<path d="M3605 4653 c-25 -22 -30 -34 -30 -74 0 -40 4 -51 30 -73 30 -26 32
-26 198 -26 l169 0 29 -29 29 -29 0 -154 c0 -84 3 -162 6 -173 7 -29 64 -65
102 -65 21 0 43 10 64 29 l33 29 3 149 c5 212 -12 280 -93 358 -77 75 -95 80
-315 83 l-195 2 -30 -27z"/>
<path d="M4514 4136 c-24 -23 -98 -130 -139 -199 -28 -49 -32 -93 -11 -123 8
-11 66 -55 130 -98 74 -49 114 -82 109 -89 -6 -11 -362 -535 -596 -877 -54
-80 -166 -244 -248 -365 -373 -547 -425 -623 -438 -638 -13 -16 -187 -137
-197 -137 -2 0 0 9 6 21 7 11 9 23 7 26 -3 3 1 22 8 44 8 21 12 39 10 39 -2 0
2 22 9 48 9 31 52 104 122 208 201 295 378 554 453 662 186 270 493 719 574
840 98 146 100 155 48 209 -68 71 -103 56 -204 -90 -78 -112 -201 -292 -742
-1087 -159 -234 -319 -468 -355 -521 -37 -52 -70 -111 -73 -130 -8 -43 -12
-60 -32 -134 -8 -33 -18 -78 -21 -100 -4 -22 -10 -45 -15 -51 -5 -6 -6 -13 -4
-16 3 -3 1 -18 -5 -33 -6 -15 -13 -44 -16 -64 -3 -20 -8 -43 -11 -51 -13 -32
-12 -52 1 -85 17 -40 71 -71 107 -62 13 4 70 39 126 79 57 40 148 105 204 143
56 39 114 81 128 96 14 14 127 175 251 357 124 183 315 464 425 625 672 980
718 1049 720 1083 2 36 -31 78 -87 111 -15 10 -28 21 -28 25 0 4 -4 8 -10 8
-14 0 -130 81 -130 91 0 15 8 11 136 -76 70 -47 132 -85 140 -85 54 0 110 69
100 124 -8 42 -20 52 -196 174 -80 55 -149 104 -155 109 -20 17 -79 11 -101
-11z"/>
<path d="M1500 3400 l0 -330 330 0 330 0 0 330 0 330 -330 0 -330 0 0 -330z
m460 0 l0 -130 -130 0 -130 0 0 130 0 130 130 0 130 0 0 -130z"/>
<path d="M2478 3670 c-39 -30 -53 -73 -38 -110 7 -17 24 -40 38 -50 24 -19 43
-20 547 -20 l523 0 31 29 c25 24 31 37 31 71 0 34 -6 47 -31 71 l-31 29 -523
0 c-504 0 -523 -1 -547 -20z"/>
<path d="M2492 3300 c-59 -36 -67 -113 -16 -161 l26 -24 399 0 399 0 32 32
c44 45 44 91 0 136 l-32 32 -388 3 c-373 2 -388 2 -420 -18z"/>
<path d="M1500 2430 l0 -330 330 0 330 0 0 330 0 330 -330 0 -330 0 0 -330z
m460 0 l0 -130 -130 0 -130 0 0 130 0 130 130 0 130 0 0 -130z"/>
<path d="M2492 2520 c-59 -36 -67 -113 -16 -161 l26 -24 248 0 248 0 26 24
c51 48 43 125 -16 161 -30 18 -51 20 -258 20 -207 0 -228 -2 -258 -20z"/>
<path d="M1507 1793 c-4 -3 -7 -154 -7 -335 l0 -328 330 0 330 0 -2 333 -3
332 -321 3 c-176 1 -323 -1 -327 -5z m453 -333 l0 -130 -130 0 -130 0 0 130 0
130 130 0 130 0 0 -130z"/>
</g>
</svg>
