<?xml version="1.0" standalone="no"?>
<!DOCTYPE svg PUBLIC "-//W3C//DTD SVG 20010904//EN"
 "http://www.w3.org/TR/2001/REC-SVG-20010904/DTD/svg10.dtd">
<svg version="1.0" xmlns="http://www.w3.org/2000/svg"
 width="180.000000pt" height="180.000000pt" viewBox="0 0 180.000000 180.000000"
 preserveAspectRatio="xMidYMid meet">

<g transform="translate(0.000000,180.000000) scale(0.100000,-0.100000)"
fill="#fff" stroke="none">
<path d="M580 1678 c-58 -30 -90 -78 -90 -135 0 -125 127 -202 234 -140 74 42
100 148 53 218 -23 35 -96 79 -132 79 -11 0 -41 -10 -65 -22z"/>
<path d="M460 1319 c-43 -18 -87 -57 -105 -96 -13 -27 -24 -94 -36 -228 -17
-181 -17 -191 0 -215 23 -31 51 -36 79 -13 19 16 23 34 32 163 14 188 18 210
35 210 13 0 15 -68 15 -494 0 -484 0 -494 21 -520 25 -32 70 -35 99 -6 19 19
20 33 20 305 l0 285 25 0 25 0 0 -284 0 -285 26 -20 c34 -26 54 -26 88 0 l26
20 0 499 c0 279 4 501 9 504 17 11 28 -20 51 -139 24 -128 37 -160 70 -170 30
-9 70 20 70 50 0 13 -14 89 -30 167 -36 170 -63 222 -130 256 -41 20 -57 22
-205 21 -88 0 -171 -5 -185 -10z"/>
<path d="M1170 978 c-68 -46 -77 -140 -19 -197 52 -52 124 -53 181 -2 26 23
32 37 36 83 4 52 2 58 -30 93 -29 31 -42 38 -84 42 -40 4 -55 0 -84 -19z"/>
<path d="M966 804 c-22 -22 -20 -44 10 -87 27 -40 98 -97 121 -97 10 0 13 -45
13 -239 0 -132 3 -247 6 -256 11 -27 53 -38 80 -20 23 15 24 19 24 155 0 133
1 140 20 140 19 0 20 -7 20 -140 0 -127 2 -140 19 -150 29 -15 56 -12 74 8 15
16 17 48 17 237 0 154 3 216 11 208 5 -5 13 -37 16 -69 7 -68 16 -84 49 -84
34 0 47 32 39 99 -8 69 -34 128 -69 160 -23 22 -39 25 -146 33 -136 9 -164 19
-211 78 -35 43 -66 51 -93 24z"/>
</g>
</svg>
