<?xml version="1.0" standalone="no"?>
<!DOCTYPE svg PUBLIC "-//W3C//DTD SVG 20010904//EN"
 "http://www.w3.org/TR/2001/REC-SVG-20010904/DTD/svg10.dtd">
<svg version="1.0" xmlns="http://www.w3.org/2000/svg"
 width="180.000000pt" height="180.000000pt" viewBox="0 0 180.000000 180.000000"
 preserveAspectRatio="xMidYMid meet">

<g transform="translate(0.000000,180.000000) scale(0.100000,-0.100000)"
fill="#fff" stroke="none">
<path d="M875 1553 c-36 -9 -87 -55 -106 -97 -55 -121 20 -266 138 -266 113 0
183 104 159 235 -9 48 -68 112 -114 125 -39 10 -45 11 -77 3z"/>
<path d="M580 1499 c-35 -14 -66 -46 -80 -80 -12 -27 -10 -32 24 -69 19 -22
38 -52 42 -67 11 -53 10 -52 48 -41 27 8 45 7 80 -4 26 -9 49 -12 52 -7 2 5
-3 23 -12 41 -19 35 -25 137 -11 175 6 17 3 25 -17 38 -32 21 -93 28 -126 14z"/>
<path d="M1150 1499 c-49 -20 -58 -36 -49 -85 9 -46 -3 -127 -21 -149 -5 -6
-5 -17 -1 -24 7 -11 16 -11 45 -1 21 7 53 9 76 5 33 -6 40 -4 40 10 0 26 29
77 66 115 l34 35 -20 32 c-10 18 -30 39 -44 48 -32 21 -93 28 -126 14z"/>
<path d="M1354 1362 c-35 -23 -71 -75 -75 -112 -2 -16 8 -41 28 -68 18 -24 37
-60 44 -80 14 -45 34 -62 71 -62 44 0 93 29 122 73 48 75 30 191 -37 241 -38
28 -114 32 -153 8z"/>
<path d="M312 1344 c-44 -35 -62 -73 -62 -134 0 -60 18 -106 54 -140 23 -21
37 -25 87 -25 l60 0 18 53 c10 29 31 67 47 83 43 45 29 108 -36 163 -44 37
-121 37 -168 0z"/>
<path d="M594 1196 c-61 -27 -100 -105 -91 -183 15 -136 201 -200 236 -82 6
21 23 52 38 69 21 26 25 38 20 71 -3 22 -17 55 -32 74 -46 61 -106 79 -171 51z"/>
<path d="M1114 1195 c-40 -18 -71 -56 -85 -106 -12 -37 -11 -40 24 -78 21 -24
41 -59 48 -85 9 -38 16 -46 41 -51 104 -23 187 66 176 187 -11 106 -114 174
-204 133z"/>
<path d="M800 1166 c0 -2 7 -17 15 -32 8 -16 15 -40 15 -53 0 -19 4 -22 23
-17 48 14 83 17 107 8 23 -8 25 -6 42 42 9 28 17 52 18 54 0 1 -49 2 -110 2
-60 0 -110 -2 -110 -4z"/>
<path d="M864 1020 c-33 -13 -82 -77 -90 -115 -21 -115 45 -210 146 -210 33 0
57 7 77 21 36 26 73 99 73 144 0 49 -38 120 -79 147 -35 24 -88 29 -127 13z"/>
<path d="M1368 1024 c-3 -5 -9 -25 -13 -44 -4 -19 -16 -49 -26 -66 l-19 -31
37 -24 c47 -30 99 -99 113 -147 5 -20 10 -59 10 -86 l0 -48 57 7 c32 4 78 15
103 24 l45 17 3 109 c2 61 -2 127 -8 148 -13 44 -61 102 -103 124 -34 17 -191
31 -199 17z"/>
<path d="M271 1009 c-48 -19 -84 -54 -107 -103 -19 -43 -23 -69 -25 -165 -2
-132 -4 -128 113 -156 99 -23 98 -24 98 43 0 77 45 171 102 212 22 16 43 30
49 32 5 2 -2 25 -16 52 -14 27 -25 60 -25 73 0 22 -3 23 -82 22 -46 0 -94 -5
-107 -10z"/>
<path d="M502 829 c-82 -41 -112 -113 -112 -269 l0 -107 61 -18 c34 -9 86 -19
115 -22 l54 -6 0 50 c0 76 27 141 81 195 27 26 55 48 64 48 19 0 20 -4 -10 54
-14 27 -25 60 -25 73 0 22 -2 23 -92 23 -74 0 -102 -4 -136 -21z"/>
<path d="M1106 818 c-3 -18 -16 -51 -27 -73 -13 -24 -17 -41 -11 -43 6 -2 28
-16 49 -31 53 -39 92 -115 100 -195 7 -81 16 -83 146 -45 l67 20 0 117 c0 102
-3 123 -24 168 -14 30 -40 64 -62 80 -34 27 -46 29 -134 32 l-97 4 -7 -34z"/>
<path d="M807 670 c-50 -16 -99 -61 -124 -116 -21 -47 -23 -64 -21 -165 l3
-113 60 -19 c42 -14 98 -21 190 -24 115 -3 137 -1 195 19 l65 23 0 120 c0 110
-2 125 -26 170 -15 30 -42 62 -67 79 -38 27 -49 29 -144 32 -57 2 -116 -1
-131 -6z"/>
</g>
</svg>
