<svg width="24" height="24" viewBox="0 0 24 24" fill="none" xmlns="http://www.w3.org/2000/svg">
<path d="M0.837891 0.8C0.837891 0.358172 1.17872 0 1.59915 0H3.88293C4.23224 0 4.53673 0.249838 4.62146 0.605971L5.23856 3.2H22.9144C23.1409 3.2 23.3556 3.30596 23.5002 3.48909C23.6448 3.67222 23.7044 3.91352 23.6626 4.14743L21.3788 16.9474C21.3113 17.3258 20.997 17.6 20.6306 17.6H19.1081H8.45048H6.92796C6.56163 17.6 6.24725 17.3258 6.17974 16.9474L3.90015 4.17088L3.28855 1.6H1.59915C1.17872 1.6 0.837891 1.24183 0.837891 0.8ZM5.56145 4.8L7.55975 16H19.9988L21.9971 4.8H5.56145ZM8.45048 17.6C6.76875 17.6 5.40544 19.0327 5.40544 20.8C5.40544 22.5673 6.76875 24 8.45048 24C10.1322 24 11.4955 22.5673 11.4955 20.8C11.4955 19.0327 10.1322 17.6 8.45048 17.6ZM19.1081 17.6C17.4264 17.6 16.0631 19.0327 16.0631 20.8C16.0631 22.5673 17.4264 24 19.1081 24C20.7898 24 22.1531 22.5673 22.1531 20.8C22.1531 19.0327 20.7898 17.6 19.1081 17.6ZM8.45048 19.2C9.29134 19.2 9.973 19.9163 9.973 20.8C9.973 21.6837 9.29134 22.4 8.45048 22.4C7.60962 22.4 6.92796 21.6837 6.92796 20.8C6.92796 19.9163 7.60962 19.2 8.45048 19.2ZM19.1081 19.2C19.949 19.2 20.6306 19.9163 20.6306 20.8C20.6306 21.6837 19.949 22.4 19.1081 22.4C18.2672 22.4 17.5856 21.6837 17.5856 20.8C17.5856 19.9163 18.2672 19.2 19.1081 19.2Z" fill="#212529"/>
</svg>
