<svg width="26" height="24" viewBox="0 0 26 24" fill="none" xmlns="http://www.w3.org/2000/svg">
<path d="M1.625 3.625C1.625 2.72754 2.35254 2 3.25 2H22.75C23.6475 2 24.375 2.72754 24.375 3.625L1.625 3.625Z" fill="#212529"/>
<path d="M13 16.625C14.7949 16.625 16.25 15.1699 16.25 13.375C16.25 11.5801 14.7949 10.125 13 10.125C11.2051 10.125 9.75 11.5801 9.75 13.375C9.75 15.1699 11.2051 16.625 13 16.625Z" fill="#212529"/>
<path d="M0 6.875C0 5.97754 0.727537 5.25 1.625 5.25H24.375C25.2725 5.25 26 5.97754 26 6.875V19.875C26 20.7725 25.2725 21.5 24.375 21.5H1.625C0.727537 21.5 0 20.7725 0 19.875V6.875ZM4.875 6.875C4.875 8.66993 3.41993 10.125 1.625 10.125V16.625C3.41993 16.625 4.875 18.0801 4.875 19.875H21.125C21.125 18.0801 22.5801 16.625 24.375 16.625V10.125C22.5801 10.125 21.125 8.66993 21.125 6.875H4.875Z" fill="#212529"/>
</svg>
