<svg width="24" height="24" viewBox="0 0 24 24" fill="none" xmlns="http://www.w3.org/2000/svg">
<path fill-rule="evenodd" clip-rule="evenodd" d="M2.46967 9.96967C2.76256 9.67678 3.23744 9.67678 3.53033 9.96967L12 18.4393L20.4697 9.96967C20.7626 9.67678 21.2374 9.67678 21.5303 9.96967C21.8232 10.2626 21.8232 10.7374 21.5303 11.0303L12.5303 20.0303C12.2374 20.3232 11.7626 20.3232 11.4697 20.0303L2.46967 11.0303C2.17678 10.7374 2.17678 10.2626 2.46967 9.96967Z" fill="#212529"/>
<path fill-rule="evenodd" clip-rule="evenodd" d="M2.46967 3.96967C2.76256 3.67678 3.23744 3.67678 3.53033 3.96967L12 12.4393L20.4697 3.96967C20.7626 3.67678 21.2374 3.67678 21.5303 3.96967C21.8232 4.26256 21.8232 4.73744 21.5303 5.03033L12.5303 14.0303C12.2374 14.3232 11.7626 14.3232 11.4697 14.0303L2.46967 5.03033C2.17678 4.73744 2.17678 4.26256 2.46967 3.96967Z" fill="#212529"/>
</svg>
