<svg width="26" height="26" viewBox="0 0 26 26" fill="none" xmlns="http://www.w3.org/2000/svg">
<path d="M13 13C15.6924 13 17.875 10.8174 17.875 8.125C17.875 5.43261 15.6924 3.25 13 3.25C10.3076 3.25 8.125 5.43261 8.125 8.125C8.125 10.8174 10.3076 13 13 13ZM16.25 8.125C16.25 9.91993 14.7949 11.375 13 11.375C11.2051 11.375 9.75 9.91993 9.75 8.125C9.75 6.33007 11.2051 4.875 13 4.875C14.7949 4.875 16.25 6.33007 16.25 8.125Z" fill="#212529"/>
<path d="M22.75 21.125C22.75 22.75 21.125 22.75 21.125 22.75H4.875C4.875 22.75 3.25 22.75 3.25 21.125C3.25 19.5 4.875 14.625 13 14.625C21.125 14.625 22.75 19.5 22.75 21.125ZM21.125 21.1193C21.1227 20.7183 20.8751 19.517 19.7728 18.4147C18.7129 17.3548 16.7198 16.25 13 16.25C9.28018 16.25 7.28707 17.3548 6.22716 18.4147C5.12485 19.517 4.87731 20.7183 4.875 21.1193H21.125Z" fill="#212529"/>
</svg>
