<svg width="16" height="16" viewBox="0 0 12 12" fill="none" xmlns="http://www.w3.org/2000/svg">
<path d="M1.875 0.75C1.46079 0.75 1.125 1.08579 1.125 1.5V2.25C1.125 2.66421 1.46079 3 1.875 3H2.25V9.75C2.25 10.5784 2.92157 11.25 3.75 11.25H8.25C9.07843 11.25 9.75 10.5784 9.75 9.75V3H10.125C10.5392 3 10.875 2.66421 10.875 2.25V1.5C10.875 1.08579 10.5392 0.75 10.125 0.75H7.5C7.5 0.335786 7.16421 0 6.75 0H5.25C4.83579 0 4.5 0.335786 4.5 0.75H1.875ZM4.125 3.75C4.33211 3.75 4.5 3.91789 4.5 4.125V9.375C4.5 9.58211 4.33211 9.75 4.125 9.75C3.91789 9.75 3.75 9.58211 3.75 9.375L3.75 4.125C3.75 3.91789 3.91789 3.75 4.125 3.75ZM6 3.75C6.20711 3.75 6.375 3.91789 6.375 4.125V9.375C6.375 9.58211 6.20711 9.75 6 9.75C5.79289 9.75 5.625 9.58211 5.625 9.375V4.125C5.625 3.91789 5.79289 3.75 6 3.75ZM8.25 4.125V9.375C8.25 9.58211 8.08211 9.75 7.875 9.75C7.66789 9.75 7.5 9.58211 7.5 9.375V4.125C7.5 3.91789 7.66789 3.75 7.875 3.75C8.08211 3.75 8.25 3.91789 8.25 4.125Z" fill="white"/>
</svg>
