
<svg version="1.0" id="svglogo" xmlns="http://www.w3.org/2000/svg"
 width="172.000000pt" height="106.000000pt" viewBox="0 0 172.000000 106.000000"
 preserveAspectRatio="xMidYMid meet" fill="#FFA51E">

<g transform="translate(0.000000,106.000000) scale(0.100000,-0.100000)"
 >

<path d="M982 794 l-61 -67 -67 62 c-71 64 -92 71 -109 33 -5 -12 -13 -22 -17
-22 -21 0 -3 -31 53 -93 l61 -67 -27 -33 c-15 -17 -41 -43 -56 -56 -16 -13
-29 -30 -29 -37 0 -8 -6 -14 -14 -14 -9 0 -12 -9 -8 -27 5 -31 29 -63 46 -63
6 0 43 32 81 70 38 39 74 70 80 69 5 0 33 -27 60 -59 28 -32 56 -59 63 -59 6
-1 11 -7 10 -13 -2 -7 7 -14 19 -16 13 -2 24 -13 27 -28 7 -28 24 -32 33 -6 3
9 13 25 21 34 12 15 12 21 -9 50 -12 18 -41 53 -63 79 -23 25 -51 57 -64 73
-25 30 -25 30 31 91 38 41 69 102 62 124 -4 14 -43 41 -60 41 -1 0 -30 -30
-63 -66z"/>
<path d="M506 770 c-1 -3 0 -65 2 -137 l4 -133 83 0 c88 0 99 6 88 49 -4 18
-13 21 -54 21 -37 0 -49 4 -49 15 0 11 11 15 40 15 39 0 40 1 40 35 0 34 -1
35 -41 35 -58 0 -46 24 14 28 46 3 47 4 47 37 l0 34 -86 3 c-47 2 -87 1 -88
-2z"/>
<path d="M337 745 c-37 -38 -36 -79 4 -115 16 -16 39 -32 50 -35 10 -4 19 -11
19 -16 0 -12 -26 -12 -50 1 -20 11 -34 -1 -43 -38 -4 -17 1 -26 23 -37 62 -32
137 -5 153 54 8 32 -19 78 -62 102 -23 12 -41 26 -41 31 0 13 34 9 57 -7 23
-16 27 -14 36 25 9 39 -6 53 -65 58 -48 4 -56 1 -81 -23z"/>
<path d="M1110 736 c0 -32 3 -35 33 -38 l32 -3 2 -75 c1 -41 2 -85 2 -97 1
-19 7 -23 35 -23 33 0 33 1 40 54 3 30 3 75 0 100 l-7 46 32 0 c29 0 31 2 31
35 l0 35 -100 0 -100 0 0 -34z"/>
<path d="M1321 646 c-23 -69 -41 -130 -41 -136 0 -5 20 -10 45 -10 38 0 45 3
45 20 0 28 65 29 73 1 4 -18 49 -33 73 -24 8 3 -1 44 -32 136 l-43 132 -39 3
-40 3 -41 -125z"/>
<path d="M510 410 c0 -5 7 -10 15 -10 8 0 15 5 15 10 0 6 -7 10 -15 10 -8 0
-15 -4 -15 -10z"/>
<path d="M967 391 c-38 -39 -36 -98 4 -120 24 -13 29 -13 53 2 20 14 26 26 26
55 0 42 -14 62 -44 63 -12 0 -15 3 -8 6 13 5 17 23 5 23 -5 0 -21 -13 -36 -29z"/>
<path d="M489 387 c0 -1 -1 -28 -2 -60 l-2 -57 38 0 c26 0 37 4 37 15 0 9 -10
15 -22 16 -17 1 -19 2 -5 6 22 6 22 33 0 34 -14 0 -13 3 5 11 30 15 23 32 -16
35 -18 2 -32 2 -33 0z"/>
<path d="M760 388 c-1 -2 -2 -29 -3 -60 -2 -49 1 -58 15 -58 10 0 18 8 19 18
0 14 3 13 16 -5 8 -13 22 -23 30 -23 18 0 14 121 -4 128 -8 2 -13 -7 -13 -25
l-1 -28 -15 28 c-8 15 -21 27 -29 27 -8 0 -15 -1 -15 -2z"/>
<path d="M1144 376 c-9 -22 0 -111 11 -111 6 0 11 28 13 63 2 39 -1 62 -8 62
-6 0 -13 -6 -16 -14z"/>
<path d="M1267 384 c-17 -17 -6 -54 21 -68 25 -14 26 -15 5 -16 -25 0 -31 -25
-9 -33 8 -3 24 -3 35 0 27 7 28 48 1 65 -26 17 -26 28 1 21 17 -5 20 -2 17 13
-3 19 -56 33 -71 18z"/>
</g>
</svg>
