<svg width="684" height="307" viewBox="0 0 684 307" fill="none" xmlns="http://www.w3.org/2000/svg">
<path fill-rule="evenodd" clip-rule="evenodd" d="M417.434 0.25091C414.881 0.80991 412.818 3.53392 413.496 5.44992C413.906 6.60792 413.755 6.67992 412.833 5.76492C411.913 4.85192 411.041 4.96091 409.024 6.24191C407.586 7.15591 406.184 8.14192 405.909 8.43292C405.634 8.72292 403.609 10.3049 401.409 11.9469C395.58 16.2979 369.884 41.6269 370.025 42.8819C370.326 45.5479 369.817 47.4499 368.802 47.4499C368.193 47.4499 367.954 46.7749 368.271 45.9499C368.986 44.0849 367.982 44.0789 365.534 45.9339C364.377 46.8089 363.902 47.9899 364.295 49.0129C364.771 50.2539 364.52 50.5149 363.299 50.0459C361.456 49.3389 357.48 53.0749 356.377 56.5499C355.839 58.2459 355.501 58.4149 354.815 57.3319C354.183 56.3339 353.935 56.2979 353.924 57.1999C353.916 57.8879 353.009 59.3499 351.909 60.4499C350.809 61.5499 349.909 62.2069 349.909 61.9109C349.909 61.6139 349.281 61.9509 348.514 62.6609C347.747 63.3699 347.35 64.3309 347.632 64.7959C348.241 65.7989 342.277 71.4849 341.467 70.6739C341.16 70.3679 340.909 70.8669 340.909 71.7829C340.909 72.6999 340.432 73.4499 339.85 73.4499C339.268 73.4499 339.069 73.8999 339.409 74.4499C339.749 74.9999 339.138 75.4499 338.051 75.4499C336.965 75.4499 335.924 75.9039 335.739 76.4599C335.554 77.0149 334.769 76.4529 333.995 75.2099C332.706 73.1399 332.728 73.0659 334.248 74.3219C335.377 75.2549 335.909 75.3249 335.909 74.5409C335.909 73.9059 335.234 73.1279 334.409 72.8119C332.778 72.1859 332.321 69.4499 333.847 69.4499C334.363 69.4499 334.721 68.6079 334.644 67.5779C334.526 66.0219 334.036 65.8399 331.732 66.5009C330.075 66.9759 327.744 66.8359 325.935 66.1539C323.029 65.0569 321.825 63.4499 323.909 63.4499C324.459 63.4499 324.909 62.9999 324.909 62.4499C324.909 61.8999 324.234 61.4499 323.409 61.4499C322.584 61.4499 321.916 60.6619 321.924 59.6999C321.937 58.2039 322.081 58.1679 322.909 59.4499C323.986 61.1169 324.002 61.0939 324.467 57.1539C324.727 54.9459 324.279 54.1609 322.335 53.4219C320.981 52.9069 319.459 51.3969 318.953 50.0649C317.868 47.2129 315.949 45.7899 315.047 47.1709C314.696 47.7079 313.562 48.1409 312.527 48.1319C310.735 48.1169 310.731 48.0539 312.425 46.8149C313.894 45.7409 313.983 45.2439 312.935 43.9809C312.236 43.1389 310.539 42.4499 309.164 42.4499C307.203 42.4499 306.901 42.1649 307.763 41.1259C309.189 39.4069 307.356 37.4499 304.32 37.4499C302.865 37.4499 302.178 36.8749 302.27 35.7339C302.361 34.6149 301.469 33.8329 299.702 33.4839C298.214 33.1899 294.583 30.6999 291.635 27.9499C282.019 18.9829 280.909 18.0859 280.909 19.2849C280.909 19.9369 281.769 21.2059 282.821 22.1069C284.93 23.9119 284.555 26.4499 282.18 26.4499C280.951 26.4499 280.898 26.1679 281.899 24.9619C282.897 23.7589 282.834 23.3589 281.57 22.8729C280.709 22.5429 279.583 22.5329 279.068 22.8519C277.849 23.6049 272.327 16.3719 272.741 14.5639C272.943 13.6839 272.508 13.3899 271.549 13.7579C269.697 14.4689 268.872 12.5479 270.047 10.2609C270.559 9.26392 270.524 8.3299 269.962 7.9829C269.438 7.6589 268.521 8.3069 267.924 9.4219C267.327 10.5369 266.179 11.4499 265.374 11.4499C264.568 11.4499 263.909 11.8929 263.909 12.4339C263.909 12.9749 262.334 12.6669 260.409 11.7489C258.484 10.8309 256.909 9.48792 256.909 8.76492C256.909 6.08692 253.623 7.59491 248.334 12.6999C245.343 15.5869 241.996 19.7499 240.896 21.9499C237.167 29.4129 235.269 31.7899 233.776 30.8679C232.447 30.0459 231.717 32.5129 232.876 33.9099C233.764 34.9799 233.589 35.4169 232.081 35.8949C229.294 36.7799 227.534 46.4459 230.159 46.4529C230.847 46.4549 233.648 49.8299 236.385 53.9529C241.199 61.2049 243.909 63.2879 243.909 59.7359C243.909 58.1299 244.02 58.1329 245.659 59.7719C247.049 61.1619 247.139 61.6889 246.099 62.3319C245.119 62.9379 245.443 63.5699 247.389 64.8449C248.818 65.7809 251.313 68.7029 252.934 71.3359C256.622 77.3309 266.823 86.9189 269.151 86.5799C270.366 86.4039 270.712 86.7999 270.294 87.8879C269.65 89.5689 271.403 90.0769 272.382 88.4939C272.707 87.9679 273.664 87.8019 274.508 88.1259C276.241 88.7919 275.284 90.0809 272.67 90.6029C271.286 90.8789 271.837 91.8679 275.374 95.4499C277.818 97.9249 279.839 100.738 279.864 101.7C279.929 104.238 281.447 103.849 283.771 100.7L285.801 97.9499L286.931 101.139C287.606 103.042 288.577 104.131 289.338 103.839C290.039 103.57 291.348 104.471 292.247 105.843C293.692 108.048 293.709 108.507 292.395 109.821C290.733 111.483 290.425 113.45 291.827 113.45C293.963 113.45 295.909 112.127 295.909 110.676C295.909 109.819 296.156 109.364 296.458 109.665C297.578 110.786 295.644 115.399 293.81 115.982C292.764 116.313 291.909 117.229 291.909 118.017C291.909 119.378 290.79 119.852 288.279 119.552C287.657 119.478 286.932 120.55 286.667 121.934C286.403 123.318 286.6 124.45 287.107 124.45C287.613 124.45 287.749 124.9 287.409 125.45C287.069 126 287.568 126.45 288.517 126.45C289.466 126.45 289.957 126.736 289.607 127.085C288.993 127.7 286.843 128.057 282.159 128.322C280.692 128.406 279.909 129.087 279.909 130.279C279.909 131.525 279.202 132.083 277.695 132.029C275.989 131.968 275.472 132.522 275.445 134.445C275.419 136.259 274.863 136.941 273.409 136.945C272.097 136.948 271.389 137.638 271.352 138.95C271.267 141.88 268.695 145.45 266.668 145.45C265.701 145.45 264.009 146.35 262.909 147.45C261.809 148.55 260.248 149.45 259.44 149.45C258.598 149.45 258.199 150.042 258.505 150.84C258.991 152.106 254.439 157.727 252.659 158.06C252.246 158.137 251.473 158.256 250.94 158.325C250.408 158.394 250.243 159.238 250.575 160.2C251.061 161.609 250.875 161.56 249.625 159.952C247.634 157.389 246.511 158.546 245.986 163.7C245.943 164.113 245.22 164.45 244.378 164.45C243.535 164.45 242.587 165.125 242.271 165.95C241.954 166.775 241.068 167.45 240.302 167.45C239.483 167.45 238.909 168.48 238.909 169.95C238.909 171.42 238.335 172.45 237.516 172.45C235.359 172.45 234.791 175.268 236.701 176.499C238.308 177.536 238.307 177.57 236.691 177.069C235.746 176.777 234.703 176.975 234.372 177.51C234.041 178.045 233.352 178.224 232.84 177.907C232.328 177.591 231.909 178.694 231.909 180.36C231.909 182.635 231.538 183.245 230.415 182.814C229.593 182.498 229.206 181.779 229.554 181.215C229.908 180.642 229.575 180.403 228.798 180.671C228.034 180.936 227.452 182.186 227.504 183.45C227.593 185.573 227.501 185.613 226.302 183.973C224.987 182.174 221.909 182.486 221.909 184.419C221.909 184.986 221.234 185.45 220.409 185.45C219.584 185.45 218.909 186.26 218.909 187.251C218.909 190.099 221.293 194.494 222.576 194.014C223.218 193.773 223.992 194.223 224.295 195.013C224.598 195.803 224.463 196.45 223.994 196.45C222.325 196.45 221.976 200.778 223.551 201.931C224.894 202.912 224.921 203.515 223.754 206.506C222.548 209.594 222.42 210.763 222.803 215.175C222.872 215.977 223.89 216.204 225.745 215.833C228.939 215.194 231.909 217.402 231.909 220.414C231.909 221.416 232.613 222.506 233.472 222.836C234.332 223.166 234.737 223.919 234.372 224.51C233.971 225.159 234.441 225.458 235.559 225.267C236.994 225.021 237.4 225.566 237.37 227.7C237.347 229.286 237.871 230.45 238.608 230.45C240.672 230.45 239.628 226.209 236.994 223.893L234.579 221.77L236.745 221.203C237.997 220.876 238.663 221.039 238.322 221.591C237.997 222.116 238.897 223.71 240.32 225.134C241.744 226.558 242.909 228.486 242.909 229.42C242.909 230.353 243.697 231.149 244.659 231.189C246.874 231.282 252.826 228.697 255.292 226.572C257.07 225.041 257.136 225.076 256.475 227.2C255.892 229.071 256.151 229.45 258.008 229.45C259.237 229.45 259.95 229.157 259.592 228.8C259.234 228.442 260.1 227.075 261.517 225.762C263.651 223.785 263.877 223.116 262.837 221.863C261.81 220.625 261.91 220.04 263.386 218.65C264.378 217.715 264.876 217.513 264.491 218.2C264.106 218.888 264.294 219.45 264.909 219.45C265.524 219.45 265.794 219.827 265.51 220.287C265.225 220.747 265.677 222.101 266.513 223.296C267.937 225.329 268.142 225.36 269.713 223.789C270.848 222.654 271.013 221.985 270.223 221.721C268.851 221.264 270.505 215.45 272.007 215.45C272.503 215.45 273.134 215.45 273.409 215.45C273.684 215.45 273.947 215.787 273.994 216.2C274.227 218.251 276.208 219.446 277.542 218.34C279.734 216.521 279.283 213.54 276.909 214.16C275.714 214.473 274.909 214.191 274.909 213.46C274.909 212.787 275.554 212.483 276.342 212.786C277.276 213.144 278.857 211.648 280.889 208.482C282.602 205.812 284.657 203.377 285.456 203.07C287.598 202.248 287.316 199.386 285.159 200.057C283.504 200.571 283.505 200.54 285.167 199.471C286.134 198.85 287.334 198.594 287.833 198.903C288.332 199.212 289.951 199.004 291.43 198.442C293.709 197.575 294.017 197.016 293.451 194.76C292.866 192.431 292.977 192.262 294.346 193.398C295.398 194.271 295.909 194.328 295.909 193.572C295.909 192.955 296.359 192.45 296.909 192.45C297.459 192.45 297.909 193.548 297.909 194.891C297.909 198.555 299.328 198.731 302.268 195.431C305.36 191.961 305.388 191.848 303.357 191.068C302.503 190.741 302.024 190.827 302.291 191.259C302.558 191.692 302.364 192.699 301.858 193.498C301.172 194.583 300.936 194.619 300.924 193.641C300.916 192.921 300.499 192.586 299.997 192.896C299.495 193.206 299.193 192.72 299.326 191.816C299.656 189.567 302.762 187.457 304.667 188.187C305.884 188.654 306.101 188.294 305.647 186.558C304.891 183.665 308.585 181.946 310.997 184.069C312.374 185.281 312.837 185.178 314.497 183.289C316.308 181.226 316.311 181.147 314.569 181.784C311.815 182.791 310.96 181.747 312.253 178.957C313.45 176.377 316.446 175.562 317.136 177.63C317.363 178.312 318.274 178.524 319.293 178.133C320.899 177.517 320.916 177.314 319.483 175.881C318.617 175.016 317.916 173.327 317.924 172.129C317.936 170.395 318.13 170.251 318.87 171.421C319.382 172.23 320.121 172.572 320.513 172.18C320.904 171.788 321.809 171.952 322.523 172.545C323.912 173.697 325.909 172.982 325.909 171.332C325.909 170.782 325.506 170.581 325.014 170.885C324.017 171.501 322.892 169.185 322.941 166.618C322.97 165.1 323.092 165.107 324.301 166.7C325.967 168.894 329.493 168.975 330.313 166.839C330.756 165.686 330.502 165.392 329.42 165.807C328.589 166.126 327.909 166.006 327.909 165.541C327.909 164.017 330.622 162.403 332.179 163C333.095 163.352 334.953 162.362 336.84 160.517C340.625 156.818 341.616 156.714 343.052 159.865C343.658 161.194 344.998 162.502 346.031 162.772C347.064 163.042 347.909 163.781 347.909 164.415C347.909 165.049 347.459 165.29 346.909 164.95C346.359 164.61 345.909 165.034 345.909 165.891C345.909 166.748 346.639 167.45 347.531 167.45C348.817 167.45 348.91 167.744 347.979 168.866C347.034 170.005 347.254 170.409 349.106 170.933C354.127 172.353 356.857 173.724 356.337 174.566C355.311 176.226 356.987 177.63 358.498 176.376C359.274 175.732 359.916 175.598 359.924 176.078C359.933 176.557 360.37 176.275 360.896 175.45C361.554 174.418 361.667 175.104 361.258 177.65C360.713 181.04 360.888 181.407 363.346 182.024C365.065 182.455 365.839 183.191 365.5 184.073C365.199 184.857 365.604 185.45 366.44 185.45C367.248 185.45 367.916 186.238 367.924 187.2C367.937 188.698 368.081 188.734 368.924 187.45C369.781 186.145 370.03 186.138 370.843 187.402C371.357 188.201 371.574 189.182 371.327 189.583C371.079 189.984 371.364 190.613 371.96 190.982C372.568 191.357 373.285 190.729 373.593 189.551C374.487 186.133 376.054 187.158 375.385 190.724C374.815 193.765 375.007 194.067 378.09 194.974C380.622 195.719 381.39 196.485 381.329 198.205C381.275 199.726 381.763 200.377 382.829 200.205C383.886 200.034 384.301 200.574 384.084 201.836C383.851 203.19 384.195 203.554 385.307 203.128C386.25 202.766 387.458 203.396 388.401 204.742C389.252 205.956 390.051 206.85 390.178 206.728C390.305 206.606 391.422 206.771 392.659 207.095C394.642 207.613 395.507 209.661 395.027 212.7C394.962 213.113 395.25 213.338 395.667 213.2C396.388 212.962 405.818 221.992 405.88 222.979C405.896 223.238 405.909 223.948 405.909 224.557C405.909 225.166 406.584 225.405 407.409 225.088C408.323 224.738 408.909 225.087 408.909 225.981C408.909 226.789 409.584 227.45 410.409 227.45C411.234 227.45 411.909 227.882 411.909 228.41C411.909 228.937 413.142 230.512 414.649 231.91C416.156 233.307 416.943 234.466 416.399 234.485C415.854 234.505 416.534 235.211 417.909 236.055C419.284 236.898 419.621 237.346 418.659 237.05C417.697 236.755 416.909 236.949 416.909 237.481C416.909 238.014 417.529 238.45 418.287 238.45C420.286 238.45 427.298 235.401 428.05 234.205C428.402 233.645 428.995 234.145 429.367 235.318C430.227 238.028 431.909 238.092 431.909 235.415C431.909 233.62 432.172 233.52 434.138 234.573L436.368 235.766L434.138 236.761C432.912 237.308 431.909 238.362 431.909 239.103C431.909 240.975 430.254 240.792 429.504 238.837C429.006 237.538 428.599 237.463 427.41 238.449C426.598 239.123 425.254 239.413 424.422 239.093C423.495 238.737 422.909 239.081 422.909 239.981C422.909 240.789 423.757 241.45 424.792 241.45C425.865 241.45 426.912 242.354 427.225 243.551C427.544 244.769 428.243 245.362 428.89 244.962C429.703 244.46 429.682 243.882 428.815 242.837C428.16 242.047 427.913 241.113 428.266 240.759C428.62 240.406 428.909 240.642 428.909 241.283C428.909 243.215 431.572 242.604 434.727 239.95C436.361 238.575 437.97 237.45 438.303 237.45C439.443 237.45 438.91 239.306 437.312 240.904C435.647 242.569 436.147 246.039 437.895 244.958C439.016 244.266 438.972 249.345 437.843 250.95C437.456 251.5 437.606 253.075 438.176 254.45C439.027 256.5 439.289 256.635 439.635 255.2C440.087 253.319 441.622 252.981 443.706 254.304C444.743 254.961 444.692 255.385 443.456 256.411C442.605 257.117 441.909 258.09 441.909 258.572C441.909 260.077 444.127 259.534 445.467 257.702C446.17 256.74 447.107 256.314 447.548 256.756C447.99 257.197 447.862 257.872 447.265 258.254C446.667 258.637 445.842 260.028 445.43 261.346C444.776 263.44 444.949 263.673 446.795 263.19C448.401 262.77 448.909 263.095 448.909 264.544C448.909 266.946 450.125 266.974 452.254 264.621C454.385 262.267 454.353 261.288 452.159 261.656C450.978 261.855 450.409 261.3 450.409 259.95C450.409 258.296 450.987 257.996 453.748 258.216C456.09 258.402 456.953 258.104 456.64 257.216C456.395 256.52 455.46 256.012 454.562 256.087C453.665 256.162 453.177 255.825 453.479 255.337C454.266 254.064 456.673 254.243 457.129 255.609C457.384 256.374 458.262 256.128 459.712 254.887C461.987 252.939 462.658 250.45 460.909 250.45C459.199 250.45 459.808 247.936 462.116 245.458C463.579 243.888 463.917 242.953 463.116 242.686C462.452 242.464 461.909 241.646 461.909 240.867C461.909 239.458 463.092 239.024 465.855 239.42C467.002 239.585 467.055 239.331 466.109 238.191C465.161 237.049 465.306 236.4 466.817 235.033C468.397 233.603 469.054 233.524 470.715 234.561C472.364 235.591 473.16 235.515 475.276 234.129C476.685 233.206 478.599 232.45 479.529 232.45C481.044 232.45 481.064 232.269 479.716 230.7C476.806 227.311 476.5 226.185 478.677 226.876C480.639 227.499 480.651 227.418 479.094 223.984C478.051 221.684 476.78 220.422 475.451 220.371C474.309 220.327 473.978 220.064 474.701 219.774C475.698 219.374 475.725 218.933 474.818 217.84C473.913 216.75 473.322 216.692 472.242 217.588C471.171 218.477 470.267 218.445 468.409 217.45C467.072 216.734 466.226 215.747 466.529 215.255C466.833 214.764 466.55 213.722 465.901 212.94C465.251 212.157 464.921 210.94 465.166 210.234C465.412 209.528 464.385 207.15 462.885 204.95C460.183 200.988 459.909 200.39 459.909 198.45C459.909 197.9 459.234 197.45 458.409 197.45C457.584 197.45 456.909 196.923 456.909 196.279C456.909 195.635 456.178 194.299 455.284 193.312C454.39 192.324 453.659 190.308 453.659 188.831C453.659 186.558 453.509 186.414 452.682 187.891C451.821 189.43 451.144 189.063 446.97 184.793C444.365 182.13 441.972 179.275 441.651 178.45C441.251 177.423 441.042 177.362 440.988 178.256C440.886 179.938 433.92 172.393 433.914 170.593C433.911 169.798 433.287 169.475 432.409 169.812C431.371 170.21 430.909 169.745 430.909 168.302C430.909 166.6 430.435 166.307 428.33 166.71C426.692 167.023 425.559 166.701 425.223 165.826C424.933 165.069 424.052 164.45 423.267 164.45C422.149 164.45 422.071 164.016 422.909 162.45C423.971 160.466 423.803 160.262 420.909 160.02C419.963 159.94 419.502 159.042 419.662 157.588C419.826 156.098 419.472 155.438 418.662 155.723C417.973 155.966 417.475 156.926 417.556 157.857C417.637 158.787 417.187 159.374 416.556 159.162C415.925 158.949 415.548 157.62 415.718 156.208C416.069 153.293 414.207 151.509 413.295 153.887C412.443 156.106 410.909 155.825 410.909 153.45C410.909 152.35 410.45 151.45 409.89 151.45C409.302 151.45 409.137 150.392 409.498 148.95C410.088 146.602 409.336 145.909 406.659 146.332C406.246 146.397 405.909 145.55 405.909 144.45C405.909 143.339 405.242 142.45 404.409 142.45C403.584 142.45 402.909 141.577 402.909 140.509C402.909 139.441 402.459 138.29 401.909 137.95C401.359 137.61 400.909 137.809 400.909 138.391C400.909 140.22 398.911 139.541 398.877 137.7C398.84 135.643 396.512 132.307 395.271 132.531C393.175 132.91 392.107 132.315 391.634 130.505C391.261 129.079 391.696 128.477 393.267 128.246C395.133 127.971 394.967 127.704 391.983 126.179C390.098 125.215 387.735 124.688 386.733 125.006C385.352 125.444 384.909 125.06 384.909 123.424C384.909 122.161 384.139 121.061 383.055 120.778C379.833 119.935 381.393 116.008 387.006 110.836C400.319 98.5689 401.909 96.9579 401.909 95.7429C401.909 95.0319 402.574 94.4499 403.386 94.4499C404.198 94.4499 405.6 93.3249 406.501 91.9499C407.402 90.5749 408.762 89.4499 409.524 89.4499C410.747 89.4499 411.009 88.9559 410.873 86.9139C410.812 85.9889 413.717 83.4499 414.838 83.4499C415.427 83.4499 415.909 82.7749 415.909 81.9499C415.909 81.1249 416.514 80.4499 417.254 80.4499C417.994 80.4499 419.456 79.4729 420.504 78.2779C421.695 76.9209 421.846 76.4299 420.909 76.9699C419.616 77.7149 419.598 77.6009 420.781 76.1419C421.536 75.2109 422.555 74.4499 423.046 74.4499C424.579 74.4499 429.759 68.1429 431.9 63.6699C433.026 61.3159 435.081 58.8729 436.467 58.2419C437.946 57.5679 438.771 56.5319 438.464 55.7339C438.178 54.9859 438.608 54.1189 439.42 53.8069C440.233 53.4959 440.668 52.8689 440.387 52.4139C440.106 51.9599 440.341 51.3009 440.909 50.9499C441.477 50.5989 441.683 49.8929 441.366 49.3809C441.05 48.8689 441.437 48.4499 442.228 48.4499C443.018 48.4499 444.224 47.7749 444.909 46.9499C446.411 45.1399 444.852 44.9369 442.984 46.6999C441.915 47.7089 441.744 47.6599 442.099 46.4499C442.341 45.6249 443.528 44.5029 444.737 43.9569C446.009 43.3829 446.712 42.3799 446.405 41.5799C446.113 40.8189 446.385 39.5809 447.01 38.8289C447.634 38.0759 447.909 36.5579 447.621 35.4549C446.986 33.0299 447.277 32.9899 450.444 35.0649C453.582 37.1209 453.545 36.7609 449.869 29.5269C447.733 25.3239 446.392 23.7109 445.361 24.1069C444.291 24.5169 443.963 24.0309 444.151 22.3099C444.349 20.5039 443.978 20.0239 442.571 20.2639C441.111 20.5139 440.871 20.1439 441.404 18.4659C441.773 17.3039 441.562 15.7369 440.936 14.9829C440.057 13.9229 440.209 13.3799 441.604 12.5929C442.936 11.8419 443.116 11.2789 442.293 10.4459C441.465 9.60892 440.302 9.84991 437.793 11.3799C434.115 13.6219 432.433 14.0299 433.414 12.4419C434.43 10.7979 431.004 7.95493 429.645 9.31393C427.963 10.9959 427.381 10.7819 423.215 6.9479C421.122 5.0229 418.847 3.65793 418.159 3.91693C416.466 4.55393 416.588 3.9139 418.528 1.9739C420.423 0.0789021 420.154 -0.34509 417.434 0.25091ZM421.239 9.86691C421.538 10.6469 421.136 11.5329 420.346 11.8359C419.397 12.1999 418.909 11.7189 418.909 10.4189C418.909 8.14291 420.438 7.78091 421.239 9.86691ZM239.291 31.0019C239.632 31.8919 239.464 32.2929 238.898 31.9429C238.354 31.6069 237.909 30.9089 237.909 30.3909C237.909 28.9529 238.626 29.2699 239.291 31.0019ZM432.909 38.0089C432.909 38.8659 432.459 39.2899 431.909 38.9499C431.359 38.6099 430.909 37.9089 430.909 37.3909C430.909 36.8729 431.359 36.4499 431.909 36.4499C432.459 36.4499 432.909 37.1519 432.909 38.0089ZM245.909 38.9499C246.627 39.8149 246.724 40.4499 246.138 40.4499C245.58 40.4499 244.864 39.7749 244.547 38.9499C244.231 38.1249 244.128 37.4499 244.318 37.4499C244.508 37.4499 245.224 38.1249 245.909 38.9499ZM243.909 41.6909C243.909 42.8959 243.352 42.5999 241.314 40.3079C239.416 38.1739 239.417 38.1719 241.659 39.5489C242.897 40.3089 243.909 41.2729 243.909 41.6909ZM443.795 40.5209C442.19 41.5119 441.46 40.9859 442.378 39.4999C442.746 38.9049 443.514 38.7059 444.085 39.0589C444.757 39.4739 444.654 39.9889 443.795 40.5209ZM429.592 41.6379C429.273 42.4349 429.036 42.1979 428.988 41.0329C428.945 39.9789 429.181 39.3889 429.513 39.7209C429.845 40.0529 429.881 40.9159 429.592 41.6379ZM435.909 39.8279C435.909 40.0349 435.121 40.8229 434.159 41.5779C432.573 42.8209 432.538 42.7859 433.781 41.1999C435.088 39.5339 435.909 39.0049 435.909 39.8279ZM438.909 41.8909C438.909 42.1339 438.459 42.6099 437.909 42.9499C437.359 43.2899 436.909 43.0909 436.909 42.5089C436.909 41.9269 437.359 41.4499 437.909 41.4499C438.459 41.4499 438.909 41.6479 438.909 41.8909ZM38.9093 47.0759C28.1703 49.1489 17.2354 54.8209 10.9944 61.5539C1.14335 72.1849 -2.66565 89.8679 1.94635 103.56C6.93935 118.381 14.4283 124.811 38.6423 135.067C56.0973 142.46 58.8613 145.328 53.4393 150.422C51.1743 152.55 50.3633 152.694 43.6893 152.147C36.6303 151.569 29.7413 149.445 21.8243 145.407C16.0163 142.444 15.0793 142.815 12.2563 149.2C10.8573 152.363 8.79234 156.975 7.66734 159.45C0.573339 175.05 0.838337 174.15 2.69934 176.327C5.52734 179.635 17.0693 185.317 25.1723 187.389C56.4773 195.396 83.8324 186.549 94.4984 164.968C100.763 152.29 100.288 136.779 93.2683 124.799C88.0743 115.937 78.4453 109.245 60.1333 101.774C46.6383 96.2679 42.9093 93.9219 42.9093 90.9409C42.9093 87.6629 47.3413 84.4499 51.8623 84.4499C56.7123 84.4499 64.5443 86.8309 73.5293 91.0379C82.2333 95.1129 83.6634 95.2269 84.9104 91.9469C85.4344 90.5699 86.7333 87.5329 87.7973 85.1969C88.8613 82.8609 91.3654 77.3659 93.3624 72.9849C95.3584 68.6029 96.8613 64.1339 96.7003 63.0529C96.3093 60.4129 85.1083 54.4369 72.9464 50.3799C64.9864 47.7249 61.5903 47.1479 52.4093 46.8959C46.3593 46.7289 40.2843 46.8099 38.9093 47.0759ZM111.576 50.1169C111.209 50.4829 110.909 81.0279 110.909 117.994C110.909 173.218 111.15 185.405 112.26 186.326C114.266 187.992 200.719 187.841 202.787 186.168C203.995 185.191 204.135 185.212 203.498 186.271C202.89 187.282 203.491 187.517 206.056 187.271L209.409 186.95V169.45V151.95L202.409 151.76C198.559 151.656 194.959 151.506 194.409 151.427C193.859 151.348 185.084 151.314 174.909 151.352C164.734 151.39 155.621 151.172 154.659 150.868C153.186 150.403 152.909 149.06 152.909 142.383V134.45H172.787C187.482 134.45 192.928 134.124 193.676 133.2C194.991 131.575 197.876 103.221 196.842 102.072C196.408 101.589 186.345 101.243 174.481 101.303L152.909 101.413V93.4319V85.4499H178.98C200.242 85.4499 205.315 85.1859 206.48 84.0209C207.599 82.9029 207.909 79.1309 207.909 66.6279C207.909 52.9929 207.678 50.5749 206.327 50.0569C204.161 49.2259 112.409 49.2839 111.576 50.1169ZM450.555 51.2129C449.483 55.0899 449.858 74.4499 451.006 74.4499C451.852 74.4499 451.842 74.8259 450.967 75.8799C450.314 76.6669 449.921 79.0289 450.094 81.1299L450.409 84.9499L461.279 85.2349C470.714 85.4819 472.072 85.3169 471.561 83.9849C471.237 83.1409 471.408 82.4499 471.94 82.4499C472.473 82.4499 472.909 83.1249 472.909 83.9499C472.909 85.1289 474.298 85.4499 479.409 85.4499H485.909L485.924 135.2C485.933 162.563 486.298 185.514 486.736 186.204C487.334 187.146 492.317 187.427 506.751 187.331C524.596 187.213 526.043 187.067 526.996 185.288C527.56 184.234 527.944 182.602 527.85 181.661C527.756 180.72 527.731 158.688 527.794 132.7L527.909 85.4499H543.35C558.796 85.4499 559.693 85.2519 560.344 81.7039C561.358 76.1779 563.096 52.3799 562.584 51.0449C562.038 49.6219 556.237 49.4589 506.505 49.4669C454.695 49.4759 451.004 49.5909 450.555 51.2129ZM589.628 50.6999C588.216 51.7609 573.503 93.6279 554.399 150.95C552.016 158.1 548.456 168.391 546.487 173.819C544.519 179.247 542.909 184.535 542.909 185.569C542.909 187.353 544.04 187.45 564.886 187.45C590.604 187.45 588.206 188.669 591.968 173.679L594.295 164.408L613.256 164.679L632.217 164.95L635.011 174.785C636.548 180.194 638.333 185.256 638.979 186.035C639.925 187.174 644.31 187.45 661.472 187.45C674.477 187.45 683.03 187.064 683.403 186.459C683.942 185.587 678.104 167.861 655.9 102.95C652.701 93.5999 647.493 78.3679 644.326 69.1009C641.159 59.8339 637.938 51.6219 637.167 50.8509C635.244 48.9279 592.169 48.7909 589.628 50.6999ZM429.366 54.3809C429.683 54.8929 429.484 55.5939 428.925 55.9399C428.366 56.2849 427.909 55.8659 427.909 55.0089C427.909 53.2519 428.509 52.9939 429.366 54.3809ZM242.909 56.9499C242.909 57.7749 242.459 58.4499 241.909 58.4499C241.359 58.4499 240.909 57.7749 240.909 56.9499C240.909 56.1249 241.359 55.4499 241.909 55.4499C242.459 55.4499 242.909 56.1249 242.909 56.9499ZM424.909 60.4499C424.909 60.9999 424.711 61.4499 424.468 61.4499C424.225 61.4499 423.749 60.9999 423.409 60.4499C423.069 59.8999 423.268 59.4499 423.85 59.4499C424.432 59.4499 424.909 59.8999 424.909 60.4499ZM328.184 63.4499C328.101 64.5499 328.632 65.4499 329.364 65.4499C330.824 65.4499 332.127 63.0009 331.173 62.0479C329.915 60.7889 328.328 61.5339 328.184 63.4499ZM420.409 64.4499C420.069 64.9999 419.255 65.4429 418.6 65.4349C417.884 65.4249 418.008 65.0319 418.909 64.4499C420.83 63.2079 421.176 63.2079 420.409 64.4499ZM186.909 68.4499C186.909 68.9999 186.459 69.4499 185.909 69.4499C185.359 69.4499 184.909 68.9999 184.909 68.4499C184.909 67.8999 185.359 67.4499 185.909 67.4499C186.459 67.4499 186.909 67.8999 186.909 68.4499ZM485.409 70.4499C485.069 70.9999 484.341 71.4499 483.791 71.4499C483.241 71.4499 483.069 70.9999 483.409 70.4499C483.749 69.8999 484.477 69.4499 485.027 69.4499C485.577 69.4499 485.749 69.8999 485.409 70.4499ZM456.092 72.6669C455.375 73.3839 454.909 73.4429 454.909 72.8169C454.909 71.4819 456.092 70.2989 456.759 70.9669C457.043 71.2509 456.743 72.0159 456.092 72.6669ZM279.909 92.8909C279.909 94.3919 278.114 95.9879 277.319 95.1929C276.621 94.4959 278.002 91.4499 279.016 91.4499C279.507 91.4499 279.909 92.0979 279.909 92.8909ZM283.634 97.4499C283.479 99.5089 281.476 100.176 280.447 98.5109C280.007 97.7989 282.178 95.7099 283.597 95.4799C283.7 95.4639 283.717 96.3499 283.634 97.4499ZM287.54 107.93C287.881 108.82 288.803 109.414 289.588 109.249C291.893 108.766 291.604 106.978 289.164 106.631C287.444 106.387 287.064 106.691 287.54 107.93ZM397.879 132.394C399.107 134.689 400.802 135.89 401.636 135.056C402.333 134.36 399.008 130.45 397.719 130.45C397.235 130.45 397.307 131.325 397.879 132.394ZM266.909 141.95C266.909 142.775 267.359 143.45 267.909 143.45C268.459 143.45 268.909 142.775 268.909 141.95C268.909 141.125 268.459 140.45 267.909 140.45C267.359 140.45 266.909 141.125 266.909 141.95ZM279.909 153.45C279.909 154 279.459 154.45 278.909 154.45C278.359 154.45 277.909 154 277.909 153.45C277.909 152.9 278.359 152.45 278.909 152.45C279.459 152.45 279.909 152.9 279.909 153.45ZM334.815 160.063C333.352 161.826 332.642 161.309 333.49 159.099C333.836 158.198 334.543 157.724 335.062 158.045C335.625 158.393 335.525 159.208 334.815 160.063ZM339.909 159.45C339.909 160 340.359 160.45 340.909 160.45C341.459 160.45 341.909 160 341.909 159.45C341.909 158.9 341.459 158.45 340.909 158.45C340.359 158.45 339.909 158.9 339.909 159.45ZM176.352 166.34C176.082 166.61 175.123 166.093 174.221 165.191C172.815 163.785 172.778 163.313 173.96 161.889C175.211 160.382 175.409 160.489 176.091 163.038C176.505 164.584 176.622 166.07 176.352 166.34ZM172.547 166.95C172.231 167.775 172.434 168.45 172.999 168.45C173.565 168.45 173.749 168.9 173.409 169.45C173.069 170 172.368 170.45 171.85 170.45C170.777 170.45 170.567 167.125 171.576 166.117C172.703 164.989 173.152 165.374 172.547 166.95ZM166.773 169.114C165.844 170.233 165.417 170.272 164.813 169.295C163.759 167.59 164.649 166.413 166.467 167.11C167.641 167.561 167.707 167.989 166.773 169.114ZM262.909 169.45C262.909 170 262.432 170.45 261.85 170.45C261.268 170.45 261.069 170 261.409 169.45C261.749 168.9 262.225 168.45 262.468 168.45C262.711 168.45 262.909 168.9 262.909 169.45ZM259.302 174.032C260.241 176.478 260.037 176.801 258.409 175.45C256.747 174.07 256.419 172.45 257.802 172.45C258.293 172.45 258.968 173.162 259.302 174.032ZM266.909 172.891C266.909 173.134 266.459 173.61 265.909 173.95C265.359 174.29 264.909 174.091 264.909 173.509C264.909 172.927 265.359 172.45 265.909 172.45C266.459 172.45 266.909 172.648 266.909 172.891ZM500.271 174.95C500.587 175.775 500.41 176.45 499.878 176.45C499.345 176.45 498.909 175.775 498.909 174.95C498.909 174.125 499.086 173.45 499.302 173.45C499.518 173.45 499.954 174.125 500.271 174.95ZM182.033 179.717C181.045 180.697 180.931 180.582 181.473 179.157C181.849 178.171 182.408 177.616 182.716 177.924C183.024 178.231 182.717 179.038 182.033 179.717ZM170.199 182.451C170.487 183.552 170.314 184.201 169.816 183.892C169.317 183.584 168.909 182.684 168.909 181.891C168.909 179.821 169.588 180.116 170.199 182.451ZM176.092 183.667C175.375 184.384 174.909 184.443 174.909 183.817C174.909 183.248 175.209 182.483 175.576 182.117C175.942 181.75 176.475 181.683 176.759 181.967C177.043 182.251 176.743 183.016 176.092 183.667ZM233.909 185.45C233.909 186 233.711 186.45 233.468 186.45C233.225 186.45 232.749 186 232.409 185.45C232.069 184.9 232.268 184.45 232.85 184.45C233.432 184.45 233.909 184.9 233.909 185.45ZM307.248 186.01C306.497 187.967 307.4 188.859 309.366 188.105C311.344 187.346 311.347 185.832 309.371 185.074C308.486 184.734 307.585 185.131 307.248 186.01ZM237.688 189.392C237.75 191.554 237.392 192.189 236.34 191.785C234.145 190.943 234.636 186.45 236.923 186.45C237.298 186.45 237.642 187.774 237.688 189.392ZM232.909 189.45C232.909 190 232.459 190.45 231.909 190.45C231.359 190.45 230.909 190 230.909 189.45C230.909 188.9 231.359 188.45 231.909 188.45C232.459 188.45 232.909 188.9 232.909 189.45ZM227.851 194.02C227.198 194.806 226.419 195.45 226.12 195.45C225.821 195.45 225.86 195.166 226.207 194.819C226.554 194.471 226.37 193.312 225.798 192.243C224.854 190.479 224.956 190.405 226.898 191.444C228.613 192.362 228.802 192.874 227.851 194.02ZM233.497 195.195C232.422 196.27 231.851 194.764 232.606 192.843C233.314 191.041 233.368 191.038 233.718 192.778C233.92 193.784 233.821 194.871 233.497 195.195ZM230.909 195.45C230.909 196 230.711 196.45 230.468 196.45C230.225 196.45 229.749 196 229.409 195.45C229.069 194.9 229.268 194.45 229.85 194.45C230.432 194.45 230.909 194.9 230.909 195.45ZM377.909 196.45C377.909 197 378.386 197.45 378.968 197.45C379.55 197.45 379.749 197 379.409 196.45C379.069 195.9 378.593 195.45 378.35 195.45C378.107 195.45 377.909 195.9 377.909 196.45ZM292.563 200.991C292.888 201.838 292.762 202.46 292.282 202.372C290.284 202.008 289.087 202.543 288.505 204.061C288.062 205.214 288.316 205.508 289.398 205.093C290.229 204.774 290.909 204.949 290.909 205.481C290.909 206.014 291.734 205.625 292.742 204.617C294.863 202.496 295.177 199.45 293.274 199.45C292.512 199.45 292.217 200.089 292.563 200.991ZM242.033 204.717C241.045 205.697 240.931 205.582 241.473 204.157C241.849 203.171 242.408 202.616 242.716 202.924C243.024 203.231 242.717 204.038 242.033 204.717ZM236.909 206.891C236.909 207.134 236.459 207.61 235.909 207.95C235.359 208.29 234.909 208.091 234.909 207.509C234.909 206.927 235.359 206.45 235.909 206.45C236.459 206.45 236.909 206.648 236.909 206.891ZM282.909 209.25C282.909 210.24 282.408 211.551 281.796 212.163C281.184 212.775 281.02 213.821 281.432 214.488C281.907 215.255 282.675 214.28 283.53 211.825C285.158 207.147 285.132 207.45 283.909 207.45C283.359 207.45 282.909 208.26 282.909 209.25ZM285.567 209.899C285.195 210.868 285.491 211.164 286.46 210.792C287.257 210.486 287.909 209.834 287.909 209.343C287.909 207.905 286.174 208.317 285.567 209.899ZM441.592 210.638C441.273 211.435 441.036 211.198 440.988 210.033C440.945 208.979 441.181 208.389 441.513 208.721C441.845 209.053 441.881 209.916 441.592 210.638ZM466.909 212.45C466.909 213 467.359 213.45 467.909 213.45C468.459 213.45 468.909 213 468.909 212.45C468.909 211.9 468.459 211.45 467.909 211.45C467.359 211.45 466.909 211.9 466.909 212.45ZM269.909 213.95C269.224 214.775 268.251 215.45 267.747 215.45C266.599 215.45 269.089 212.54 270.281 212.488C270.761 212.467 270.594 213.125 269.909 213.95ZM240.592 215.638C240.273 216.435 240.036 216.198 239.988 215.033C239.945 213.979 240.181 213.389 240.513 213.721C240.845 214.053 240.881 214.916 240.592 215.638ZM470.409 214.45C470.069 215 470.493 215.45 471.35 215.45C472.207 215.45 472.909 215 472.909 214.45C472.909 213.9 472.486 213.45 471.968 213.45C471.45 213.45 470.749 213.9 470.409 214.45ZM257.199 217.45C257.486 218.55 257.366 219.45 256.932 219.45C256.498 219.45 255.907 218.55 255.619 217.45C255.332 216.35 255.452 215.45 255.886 215.45C256.32 215.45 256.911 216.35 257.199 217.45ZM243.592 220.638C243.273 221.435 243.036 221.198 242.988 220.033C242.945 218.979 243.181 218.389 243.513 218.721C243.845 219.053 243.881 219.916 243.592 220.638ZM114.682 228.287C106.597 233.166 105.646 234.745 108.659 238.284L110.409 240.34L119.244 236.757C124.103 234.786 128.323 232.536 128.622 231.757C129.385 229.767 125.77 223.432 123.932 223.537C123.094 223.585 118.932 225.722 114.682 228.287ZM247.409 224.45C247.749 225 247.577 225.45 247.027 225.45C246.477 225.45 245.749 225 245.409 224.45C245.069 223.9 245.241 223.45 245.791 223.45C246.341 223.45 247.069 223.9 247.409 224.45ZM381.409 228.295C374.616 232.403 373.452 233.496 373.691 235.538C374.279 240.552 375.77 240.685 385.669 236.601C390.745 234.507 395.157 232.535 395.473 232.219C396.366 231.326 392.022 223.45 390.639 223.453C389.962 223.455 385.809 225.634 381.409 228.295ZM252.576 230.117C252.209 230.483 251.909 231.387 251.909 232.125C251.909 233.217 252.282 233.234 253.909 232.218C255.009 231.531 255.909 230.627 255.909 230.209C255.909 229.273 253.487 229.205 252.576 230.117ZM259.409 231.45C259.069 232 259.493 232.45 260.35 232.45C261.207 232.45 261.909 232 261.909 231.45C261.909 230.9 261.486 230.45 260.968 230.45C260.45 230.45 259.749 230.9 259.409 231.45ZM461.909 237.568C461.909 238.118 461.459 238.29 460.909 237.95C460.359 237.61 459.909 236.882 459.909 236.332C459.909 235.782 460.359 235.61 460.909 235.95C461.459 236.29 461.909 237.018 461.909 237.568ZM475.938 236.411C475.129 236.923 474.772 237.646 475.145 238.019C476.06 238.934 478.909 237.77 478.909 236.481C478.909 235.211 477.874 235.187 475.938 236.411ZM479.109 241.057C478.418 242.291 477.007 242.581 473.015 242.307C468.49 241.996 467.758 242.208 467.335 243.95C467.067 245.05 466.975 259.225 467.129 275.45L467.409 304.95L476.659 305.238L485.909 305.525V273.988C485.909 243.117 485.867 242.45 483.909 242.45C482.798 242.45 481.909 241.783 481.909 240.95C481.909 238.969 480.242 239.033 479.109 241.057ZM372.612 242.892C362.863 246.37 356.08 253.857 353.418 264.077C348.827 281.701 356.626 298.804 371.874 304.555C379.474 307.421 392.234 306.923 399.339 303.484C410.588 298.038 416.279 287.937 416.258 273.45C416.237 258.464 409.641 248.117 397.121 243.43C390.855 241.084 378.445 240.812 372.612 242.892ZM548.453 243.039C535.394 247.821 531.56 265.329 541.536 274.628C544.294 277.199 551.404 281.167 557.206 283.373C560.454 284.608 561.779 287.265 559.805 288.586C557.909 289.855 551.538 288.812 546.98 286.486L543.235 284.575L539.927 291.413C538.107 295.174 536.887 298.951 537.215 299.805C537.543 300.66 539.746 302.39 542.11 303.65C545.815 305.623 547.883 305.941 557.07 305.945C567.302 305.95 567.904 305.829 572.07 302.937C578.176 298.696 581.147 292.599 580.667 285.293C580.049 275.903 576.061 271.628 562.659 265.99C557.994 264.027 555.909 262.612 555.909 261.407C555.909 257.913 561.965 258.016 569.193 261.632C571.275 262.674 573.363 263.288 573.833 262.997C574.677 262.475 579.915 250.127 579.903 248.689C579.893 247.555 573.928 244.386 568.909 242.85C563.159 241.089 553.536 241.178 548.453 243.039ZM96.3703 243.691C96.1003 244.396 95.9983 258.467 96.1443 274.961L96.4093 304.95H118.909H141.409V296.95V288.95L128.659 288.67L115.909 288.39V284.958V281.525L125.159 281.238L134.409 280.95L135.147 274.45C135.552 270.875 135.679 267.388 135.428 266.7C135.107 265.819 132.156 265.45 125.44 265.45H115.909V262.481V259.512L128.159 259.231L140.409 258.95V250.95V242.95L118.635 242.68C101.664 242.47 96.7533 242.693 96.3703 243.691ZM248.611 243.082C248.225 243.468 247.909 257.658 247.909 274.617V305.45H257.409H266.909L266.968 291.2C267.008 281.51 267.341 277.43 268.008 278.45C268.548 279.275 272.2 285.687 276.125 292.7L283.261 305.45H292.585H301.909V273.95V242.45H292.409H282.909V256.15C282.909 264.784 282.558 269.499 281.961 268.9C281.44 268.378 277.906 262.325 274.11 255.45L267.206 242.95L258.259 242.665C253.338 242.508 248.996 242.696 248.611 243.082ZM430.88 246.985C429.143 249.078 430.591 250.196 432.529 248.259C433.464 247.324 433.703 246.441 433.118 246.079C432.578 245.745 431.571 246.153 430.88 246.985Z" fill="white"/>
</svg>
